<svg width="1920" height="108" viewBox="0 0 1920 108" fill="none" xmlns="http://www.w3.org/2000/svg">
<rect width="1920" height="108" fill="#D264E4"/>
<path d="M1378.09 48.6661V64.1134H1373.1V44.6971L1383.39 44.7066C1387.76 44.7066 1389.25 47.7475 1389.25 50.5097V64.1134H1384.28V50.535C1384.28 49.3782 1383.67 48.6661 1382.21 48.6661H1378.09ZM1411.98 48.4341C1410.27 48.4341 1408.96 49.2982 1408.41 50.4712C1408.08 51.1754 1407.97 51.7151 1407.93 52.5772H1415.6C1415.5 50.4712 1414.53 48.4341 1411.98 48.4341ZM1407.93 55.924C1407.93 58.439 1409.51 60.2902 1412.34 60.2902C1414.54 60.2902 1415.64 59.6883 1416.91 58.439L1419.99 61.3388C1418.02 63.2585 1415.95 64.4247 1412.31 64.4247C1407.54 64.4247 1402.97 61.858 1402.97 54.3773C1402.97 47.9864 1406.96 44.3677 1412.19 44.3677C1417.5 44.3677 1420.57 48.6039 1420.57 54.1528V55.924H1407.93ZM1398.76 64.089C1394.7 64.089 1392.98 61.3003 1392.98 58.5463V39.4065H1397.96V44.6967H1401.71V48.6661H1397.96V58.2383C1397.96 59.3664 1398.5 59.9927 1399.68 59.9927H1401.71V64.089H1398.76ZM1368.67 42.0139H1363.65V37.3105H1368.67V42.0139ZM1368.68 64.3175C1364.93 63.9611 1363.65 61.7123 1363.65 59.1173L1363.65 44.6971H1368.68V64.3175ZM1428.49 63.9024C1424.74 63.5458 1423.47 61.3003 1423.47 58.7086V36.6415H1428.49V63.9024ZM1446.05 39.8307C1441.5 17.9366 1398.42 16.5505 1370.66 33.2267V35.068C1398.39 21.0044 1437.73 21.0875 1441.31 41.2527C1442.51 47.9206 1438.71 54.8723 1431.9 58.8682V64.096C1440.09 61.1412 1448.49 51.5596 1446.05 39.8307ZM1395.58 78.1358C1376.42 79.8837 1356.45 77.1395 1353.66 62.3662C1352.29 55.0836 1355.65 47.3635 1360.11 42.5681V40.0041C1352.08 46.9517 1347.72 55.7474 1350.23 66.1407C1353.43 79.468 1370.57 87.0208 1396.73 84.5125C1407.08 83.5162 1420.62 80.2327 1430.04 75.133V67.8882C1421.5 72.9087 1407.36 77.0602 1395.58 78.1358Z" fill="white"/>
<g clip-path="url(#clip0_3_180)">
<mask id="mask0_3_180" style="mask-type:luminance" maskUnits="userSpaceOnUse" x="168" y="41" width="163" height="25">
<path d="M331 41H168V66H331V41Z" fill="white"/>
</mask>
<g mask="url(#mask0_3_180)">
<path d="M179.917 58.5475C180.137 59.1147 180.067 59.8417 179.96 60.2824C179.771 61.0644 179.254 61.863 177.725 61.863C176.293 61.863 175.42 61.0149 175.42 59.7371V57.4625H169.266V59.2689C169.266 64.5011 173.288 66.0817 177.601 66.0817C181.748 66.0817 185.161 64.6388 185.705 60.723C185.985 58.6961 185.781 57.3689 185.684 56.8788C184.715 51.966 176.013 50.501 175.361 47.7527C175.271 47.3474 175.263 46.9274 175.34 46.519C175.501 45.7645 176.002 44.9439 177.434 44.9439C178.781 44.9439 179.561 45.792 179.561 47.0698V48.5238H185.285V46.8715C185.285 41.7605 180.8 40.9619 177.558 40.9619C173.477 40.9619 170.143 42.3443 169.535 46.172C169.373 47.2185 169.346 48.1548 169.589 49.3334C170.585 54.1249 178.732 55.5128 179.917 58.5475Z" fill="white"/>
<path d="M254.659 58.5856C254.88 59.1528 254.81 59.8798 254.702 60.3205C254.513 61.1025 253.997 61.9011 252.467 61.9011C251.035 61.9011 250.163 61.053 250.163 59.7752V57.5006H244.008V59.307C244.008 64.5392 248.03 66.1198 252.343 66.1198C256.49 66.1198 259.904 64.6769 260.447 60.7611C260.728 58.7342 260.523 57.407 260.426 56.9167C259.457 52.0041 250.755 50.5391 250.103 47.7908C250.013 47.3855 250.006 46.9654 250.082 46.5571C250.243 45.8026 250.744 44.982 252.177 44.982C253.523 44.982 254.304 45.8301 254.304 47.1079V48.5618H260.028V46.9096C260.028 41.7986 255.542 41 252.3 41C248.219 41 244.886 42.3824 244.277 46.2101C244.116 47.2566 244.089 48.1928 244.331 49.3715C245.327 54.163 253.474 55.5509 254.659 58.5856Z" fill="white"/>
<path d="M193.821 41.7108L189.567 65.1674H195.764L198.904 43.8808H199.033L202.086 65.1674H208.252L204.025 41.7053L193.821 41.7108ZM228.472 41.7108L225.645 59.6434H225.51L222.688 41.7108H213.335L212.829 65.1674H218.569L218.709 44.0791H218.838L222.667 65.1674H228.488L232.322 44.0846H232.446L232.591 65.1674H238.326L237.82 41.7053L228.472 41.7108Z" fill="white"/>
<path d="M273.729 61.6539C275.323 61.6539 275.813 60.5304 275.926 59.9576C275.975 59.7042 275.98 59.3628 275.98 59.0598V41.7111H281.785V58.5256C281.786 59.0401 281.768 59.5547 281.731 60.0678C281.327 64.4462 277.946 65.8672 273.729 65.8672C269.508 65.8672 266.126 64.4462 265.722 60.0678C265.706 59.8364 265.663 58.9553 265.668 58.5256V41.7056H271.473V59.0544C271.468 59.3628 271.479 59.7042 271.527 59.9576C271.635 60.5304 272.13 61.6539 273.729 61.6539ZM301.773 41.7111L302.086 60.1228H301.962L296.685 41.7111H288.177V64.92H293.815L293.502 45.8693H293.626L299.286 64.92H307.454V41.7111H301.773ZM321.562 61.4115C323.221 61.4115 323.802 60.3376 323.905 59.7042C323.953 59.4454 323.959 59.115 323.959 58.8231V55.4084H321.605V51.9937H329.731V58.2833C329.731 58.7239 329.72 59.0434 329.65 59.8254C329.273 64.0994 325.649 65.6248 321.584 65.6248C317.518 65.6248 313.9 64.0994 313.518 59.8254C313.453 59.0434 313.437 58.7239 313.437 58.2833V48.4138C313.437 47.9952 313.491 47.2572 313.534 46.8717C314.045 42.4822 317.518 41.0723 321.584 41.0723C325.649 41.0723 329.214 42.4712 329.634 46.8662C329.709 47.6152 329.688 48.4083 329.688 48.4083V49.1959H323.905V47.8796C323.905 47.8796 323.905 47.3288 323.835 46.9874C323.727 46.4696 323.296 45.28 321.541 45.28C319.872 45.28 319.381 46.4091 319.258 46.9874C319.188 47.2958 319.161 47.7144 319.161 48.0944V58.8176C319.161 59.115 319.172 59.4454 319.215 59.7098C319.322 60.3376 319.904 61.4115 321.562 61.4115Z" fill="white"/>
</g>
</g>
<g clip-path="url(#clip1_3_180)">
<path d="M550.892 29.2565C551.547 28.8644 552.202 28.4723 552.857 28.2109C553.119 28.8644 553.511 29.5179 553.773 30.1713C552.333 30.9555 550.892 31.609 549.582 32.5238C545.915 34.7456 542.51 37.3594 539.628 40.6268C537.402 43.2406 535.568 46.3773 535.175 49.906C535.044 51.997 535.437 54.2188 536.747 55.9179C537.926 57.3555 539.759 58.401 541.593 58.6624C543.688 59.0544 545.915 58.793 547.88 58.2703C551.94 57.2248 555.607 55.2643 559.143 53.1733C561.239 51.8664 563.334 50.5595 565.037 48.7297C565.692 47.9456 566.216 47.0308 566.216 45.9851C566.216 45.201 565.692 44.4169 565.037 44.1555C564.382 43.7634 563.465 43.6327 562.68 43.7634C561.632 44.0248 560.584 44.5476 559.536 45.0704C556.524 46.6387 553.904 48.7297 550.892 50.2981C549.058 51.2129 547.094 52.1278 544.998 52.1278C543.689 52.1278 542.379 51.605 541.593 50.5595C540.938 49.7752 540.676 48.8604 540.807 47.8149C540.938 46.2465 541.593 44.6782 542.51 43.502C544.212 41.1495 546.57 39.4505 549.058 38.0129C553.249 35.2684 557.834 33.0466 562.68 31.7397C565.299 31.0862 567.919 30.6941 570.538 30.8248C574.336 30.9555 578.134 32.1317 581.278 34.3535C584.945 36.9674 587.695 41.1495 587.957 45.7239C588.35 49.514 587.171 53.3039 585.469 56.702C584.159 59.3158 582.325 61.6683 580.361 63.7594C578.789 65.4584 577.086 67.0267 575.384 68.4644C573.157 70.4248 570.669 72.1238 568.18 73.6921C565.692 75.2604 562.942 76.5673 560.191 77.7436C559.405 78.1357 558.488 78.5277 557.703 78.7891C557.179 76.4367 556.393 74.0841 555.869 71.7317C558.096 70.6862 560.322 69.7713 562.549 68.595C565.037 67.2881 567.395 65.5892 569.621 63.89C571.586 62.3219 573.419 60.7536 575.122 58.9238C578.003 55.9179 580.361 51.997 580.885 47.8149C581.016 46.2465 581.016 44.809 580.623 43.2406C579.706 40.104 577.48 37.3594 574.467 35.7911C571.979 34.4842 569.097 33.9614 566.347 34.2228C562.287 34.4842 558.488 36.0525 554.952 37.8822C553.249 38.7971 551.678 39.7119 550.106 40.7575C548.534 41.6723 547.094 42.7179 545.915 44.1555C545.391 44.809 544.998 45.5931 544.998 46.3773C544.998 46.9 545.391 47.5534 545.915 47.6842C546.832 48.0763 547.88 47.6842 548.796 47.2922C553.119 45.201 556.786 41.9337 561.37 40.3654C563.596 39.5812 566.216 39.4505 568.442 40.3654C570.276 41.1495 571.717 42.8486 572.11 44.809C572.241 45.9851 572.241 47.1614 571.848 48.2069C571.193 49.906 570.145 51.3436 568.835 52.6505C567.264 54.2188 565.43 55.5257 563.596 56.702C560.977 58.1396 558.488 59.8387 555.738 61.0148C553.381 62.0605 550.761 62.9753 548.273 63.6288C545.391 64.4129 542.379 64.5435 539.497 63.89C536.616 63.2366 534.258 61.6683 532.949 59.4466C531.77 57.6169 531.246 55.3951 531.246 53.3039C531.377 50.8209 531.901 48.3377 532.949 46.1159C534.782 42.3258 537.533 38.9278 540.807 36.1832C543.95 33.4387 547.356 31.0862 551.023 29.1258L550.892 29.2565Z" fill="white"/>
<path fill-rule="evenodd" clip-rule="evenodd" d="M581.016 47.292V44.9395C581.147 45.7237 581.147 46.5078 581.016 47.292ZM601.185 46.8998C602.757 45.9851 604.591 45.9851 606.293 46.3772C607.21 46.5078 607.996 47.1612 608.651 47.8147C608.127 48.3375 607.603 48.8604 606.948 49.383C605.9 47.9455 603.674 47.6841 602.233 48.5989C601.316 49.2524 601.055 50.6899 601.709 51.6048C602.256 52.2595 603.077 52.5498 603.942 52.856C604.114 52.9166 604.287 52.9778 604.46 53.0425C605.639 53.3038 606.948 53.696 607.865 54.7415C608.782 55.6564 608.913 56.9633 608.782 58.1396C608.651 59.4465 607.865 60.6226 606.686 61.2761C605.508 61.9295 604.198 62.1909 602.888 62.0603C601.316 61.9295 599.745 61.2761 598.828 59.9692C599.352 59.4465 600.007 58.9237 600.531 58.5316C601.709 60.2306 604.329 60.7534 605.9 59.4465C606.817 58.793 607.079 57.3553 606.293 56.4404C605.547 55.6953 604.445 55.4222 603.438 55.1726L603.281 55.1335C602.102 54.7415 600.923 54.2187 600.138 53.1732C599.483 52.3891 599.352 51.2128 599.352 50.1673C599.483 48.8604 600.269 47.8147 601.316 47.1612L601.185 46.8998ZM667.065 46.8998C668.767 45.9851 670.863 45.8543 672.697 46.2464C674.137 46.5078 675.447 47.0306 676.364 48.0761C676.102 48.3375 675.873 48.5989 675.643 48.8603C675.414 49.1217 675.185 49.383 674.923 49.6444C672.828 47.6841 669.16 47.4227 667.065 49.5138C664.838 51.4742 664.576 55.1335 666.148 57.4859C667.065 58.793 668.374 59.7077 669.946 59.9692C671.518 60.0999 673.09 59.9692 674.53 59.3157V55.1335H671.256V53.1732H676.626V60.3612C676.626 60.6226 676.364 60.7534 676.102 60.884C674.137 61.7989 672.042 62.0603 669.946 61.9295C667.72 61.7989 665.624 60.6226 664.445 58.793C663.136 56.9633 662.743 54.6109 663.136 52.5197C663.528 50.1673 664.969 48.0761 667.196 47.0306L667.065 46.8998ZM619.784 46.3772H629.476V48.3375H621.748V52.7811H628.821V54.7415H621.748C621.748 55.2643 621.734 55.787 621.719 56.3098C621.69 57.3554 621.661 58.4009 621.748 59.4465C622.102 59.5347 622.516 59.5038 622.908 59.4744C623.097 59.4602 623.281 59.4465 623.451 59.4465H629.737V61.4069H619.653V46.3772H619.784ZM645.585 46.3772H647.419C648.28 48.4191 649.164 50.4611 650.052 52.5122L650.052 52.5123C651.323 55.4496 652.603 58.4056 653.836 61.4069C653.574 61.4069 653.313 61.4214 653.051 61.4359C652.527 61.4649 652.003 61.4939 651.479 61.4069C651.217 60.8187 650.955 60.1979 650.693 59.5771C650.431 58.9563 650.169 58.3355 649.907 57.7474H642.835C642.573 58.3355 642.344 58.9563 642.114 59.5771C641.885 60.1979 641.656 60.8187 641.394 61.4069H639.037C640.085 58.9232 641.198 56.4069 642.311 53.8906C643.425 51.3752 644.538 48.8598 645.585 46.3772ZM693.259 46.3772H694.962C695.818 48.4046 696.695 50.432 697.576 52.4684L697.576 52.4685L697.577 52.4693C698.854 55.4208 700.14 58.3909 701.379 61.4069C701.117 61.4069 700.855 61.4214 700.594 61.4359L700.593 61.4359C700.07 61.4649 699.546 61.4939 699.022 61.4069C698.607 60.6619 698.297 59.8645 697.993 59.0811L697.993 59.0809C697.817 58.6274 697.642 58.1786 697.45 57.7474H690.378C690.116 58.3357 689.887 58.9567 689.657 59.5777L689.657 59.578C689.428 60.1985 689.199 60.819 688.937 61.4069C688.413 61.4939 687.889 61.4649 687.366 61.4359C687.104 61.4214 686.842 61.4069 686.58 61.4069C687.694 58.9218 688.808 56.404 689.922 53.8862L689.923 53.8847C691.035 51.3713 692.147 48.8579 693.259 46.3772ZM707.667 46.3772H719.454V48.3375H714.608V61.4069H712.513V48.3375H707.667V46.3772ZM729.67 46.3772H739.362V48.3375H731.765V52.7811H738.968V54.7415H731.765V59.4465H739.754V61.4069H729.67V46.3772ZM644.239 54.4067L644.24 54.4057C644.956 52.6471 645.69 50.845 646.502 49.1216C646.961 50.2325 647.419 51.3761 647.878 52.5197C648.336 53.6633 648.794 54.8069 649.253 55.9178H643.621C643.827 55.4197 644.032 54.915 644.239 54.4067ZM691.785 54.399C691.577 54.9099 691.371 55.4172 691.164 55.9178H696.796C696.337 54.8069 695.879 53.6633 695.42 52.5197C694.962 51.3761 694.503 50.2325 694.045 49.1216C693.233 50.8428 692.501 52.6425 691.785 54.399Z" fill="white"/>
</g>
<g clip-path="url(#clip2_3_180)">
<path d="M1146.09 48.051C1145.17 48.051 1144.42 47.3603 1144.42 46.5089C1144.42 45.6575 1145.17 44.9588 1146.09 44.9588C1147.01 44.9588 1147.76 45.6575 1147.76 46.5089C1147.76 47.3603 1147.01 48.051 1146.09 48.051ZM1146.09 44.5813C1144.95 44.5813 1144.01 45.4487 1144.01 46.5089C1144.01 47.5691 1144.95 48.4365 1146.09 48.4365C1147.23 48.4365 1148.17 47.5691 1148.17 46.5089C1148.17 45.4487 1147.23 44.5813 1146.09 44.5813Z" fill="white"/>
<path d="M1146.23 46.429L1145.79 46.437L1145.78 45.939H1146.22C1146.38 45.931 1146.52 46.0274 1146.52 46.18C1146.52 46.3326 1146.39 46.429 1146.23 46.429ZM1146.95 46.172C1146.94 45.8346 1146.69 45.5937 1146.28 45.5937L1145.35 45.6098L1145.38 47.4249H1145.81L1145.8 46.7743H1146.1L1146.5 47.4169L1146.97 47.4088L1146.52 46.7181C1146.73 46.6699 1146.95 46.4932 1146.95 46.172ZM985.472 59.3684H980.277V48.2574H985.33C986.693 48.2574 987.544 49.0734 987.544 50.1794C987.544 51.2853 986.693 52.0748 985.33 52.0748H979.554V55.2875H985.472C987.062 55.2875 987.913 56.2353 987.913 57.3404C987.913 58.6046 987.005 59.3684 985.472 59.3684ZM988.395 53.5495C990.184 53.2073 991.661 51.7327 991.661 49.5216C991.661 47.1779 989.815 45.0455 986.21 45.0455H976.246V62.6067H986.522C990.127 62.6067 992.029 60.5 992.029 57.8673C992.029 55.6554 990.411 53.8394 988.395 53.5495ZM1003.83 53.0754H999.47V56.3668H1002.55L1006.27 62.6066H1010.9L1006.64 55.9186C1008.68 55.4713 1010.78 53.8127 1010.78 50.7061L1003.83 53.0754ZM1010.78 50.7061C1010.78 47.4412 1008.37 45.0454 1004.42 45.0454H995.567V62.6066H999.598V48.3367H1003.83C1005.45 48.3367 1006.67 49.2315 1006.67 50.7061C1006.67 52.1807 1005.45 53.0754 1003.83 53.0754L1010.78 50.7061ZM1041.43 56.3405L1044.38 48.7843L1047.33 56.3405H1041.43ZM1041.85 45.0455L1034.53 62.6067H1039.13L1040.32 59.6319H1048.44L1049.6 62.6067H1054.2L1046.91 45.0455H1041.85ZM1065.15 59.3155H1061.72V48.3362H1065.15C1069.04 48.3362 1071.08 50.732 1071.08 53.8395C1071.08 56.8145 1068.9 59.3155 1065.15 59.3155ZM1065.15 45.0456H1057.68V62.6069H1065.15C1071.08 62.6069 1075.2 59.1316 1075.2 53.8395C1075.2 48.5474 1071.08 45.0456 1065.15 45.0456ZM1136.27 45.042L1131.3 52.4873L1126.34 45.042H1121.88V62.6064H1125.91V51.1268L1130.25 57.2485C1130.75 57.9481 1131.86 57.9481 1132.35 57.2485L1136.69 51.1268V62.6064H1140.72V45.042H1136.27Z" fill="white"/>
<path d="M1023.56 59.4988C1020.21 59.4988 1017.5 56.9785 1017.5 53.8702C1017.5 50.7612 1020.21 48.2408 1023.56 48.2408C1026.92 48.2408 1029.63 50.7612 1029.63 53.8702C1029.63 56.9785 1026.92 59.4988 1023.56 59.4988ZM1023.56 44.6113C1018.05 44.6113 1013.58 48.7565 1013.58 53.8702C1013.58 58.9833 1018.05 63.1283 1023.56 63.1283C1029.08 63.1283 1033.55 58.9833 1033.55 53.8702C1033.55 48.7565 1029.08 44.6113 1023.56 44.6113Z" fill="white"/>
<path d="M1108.73 59.0535C1105.37 59.0535 1102.66 56.5332 1102.66 53.4249C1102.66 50.3159 1105.37 47.7955 1108.73 47.7955C1112.08 47.7955 1114.8 50.3159 1114.8 53.4249C1114.8 56.5332 1112.08 59.0535 1108.73 59.0535ZM1108.73 44.166C1103.21 44.166 1098.74 48.3112 1098.74 53.4249C1098.74 58.5378 1103.21 62.6831 1108.73 62.6831C1114.24 62.6831 1118.71 58.5378 1118.71 53.4249C1118.71 48.3112 1114.24 44.166 1108.73 44.166Z" fill="white"/>
<path d="M1093.34 56.5938C1092.31 58.3254 1090.32 59.4988 1088.03 59.4988C1084.68 59.4988 1081.96 56.9785 1081.96 53.8702C1081.96 50.7612 1084.68 48.2416 1088.03 48.2416C1090.3 48.2416 1092.27 49.3966 1093.31 51.1049L1096.14 48.4794C1094.33 46.1382 1091.37 44.6113 1088.03 44.6113C1082.52 44.6113 1078.05 48.7565 1078.05 53.8702C1078.05 58.9833 1082.52 63.1291 1088.03 63.1291C1091.39 63.1291 1094.37 61.5854 1096.17 59.2217L1093.34 56.5938Z" fill="white"/>
<path fill-rule="evenodd" clip-rule="evenodd" d="M968.951 53.9997C968.951 61.2013 962.657 67.0395 954.892 67.0395C947.127 67.0395 940.832 61.2013 940.832 53.9997C940.832 46.7981 947.127 40.96 954.892 40.96C962.657 40.96 968.951 46.7981 968.951 53.9997ZM962.725 57.957C964.2 57.1274 965.672 56.9282 967.28 57.5226C967.628 57.651 967.969 57.7948 968.295 57.9402C968.072 58.5875 967.796 59.225 967.472 59.8234C967.116 59.6611 966.743 59.5 966.363 59.3956C965.814 59.2453 965.25 59.2372 964.705 59.4068C964.225 59.5559 963.793 59.8092 963.366 60.0591C963.322 60.0851 963.277 60.111 963.233 60.1368L963.231 60.1379C962.346 60.6541 961.343 61.2388 960.066 61.2388C958.173 61.2388 956.844 60.1906 956.42 58.3627C956.092 56.9459 954.891 51.6016 954.891 51.6016C954.423 53.783 953.694 56.9459 953.365 58.3627C952.94 60.1906 951.612 61.2388 949.719 61.2388C948.443 61.2388 947.439 60.6539 946.554 60.1377L946.552 60.1368C946.508 60.1109 946.463 60.0847 946.419 60.0586C945.992 59.8089 945.56 59.5558 945.08 59.4068C944.535 59.2372 943.972 59.2453 943.423 59.3956C943.042 59.5 942.669 59.661 942.313 59.8231C941.99 59.2248 941.713 58.5876 941.49 57.9404C941.816 57.7949 942.158 57.651 942.505 57.5226C944.112 56.9282 945.585 57.1274 947.06 57.957C947.06 57.957 947.599 58.2614 947.76 58.3554L947.769 58.3609C948.453 58.7589 949.099 59.1346 949.719 59.1346C950.314 59.1346 950.899 58.9866 951.147 57.9194C951.533 56.2543 952.476 52.163 952.887 50.1366C953.128 48.9455 953.261 48.3038 953.399 47.8677C953.639 47.1055 954.08 46.6886 954.704 46.6196C954.704 46.6196 954.813 46.6051 954.892 46.6051C954.973 46.6051 955.072 46.618 955.072 46.618C955.701 46.6846 956.144 47.1014 956.387 47.8677C956.525 48.3038 956.657 48.9455 956.899 50.1366C957.31 52.163 958.252 56.2543 958.638 57.9194C958.886 58.9866 959.471 59.1346 960.066 59.1346C960.687 59.1346 961.332 58.759 962.016 58.361L962.026 58.3554C962.187 58.2614 962.725 57.957 962.725 57.957Z" fill="white"/>
</g>
<path d="M1700.13 38.3672L1686.41 49.2401C1685 43.803 1680.43 39.8151 1674.8 39.8151H1664.95V64.8234H1674.8C1680.43 64.8234 1685.35 60.8348 1686.41 55.3983L1700.13 66.2712L1713.85 55.3983V64.8234H1729.33V59.7483H1719.13V39.8153H1713.5V49.2369L1700.48 60.113L1697.67 57.5745L1704 52.4992L1710.68 47.0628L1706.81 43.8027L1693.8 54.3111L1690.98 51.7736L1704 41.6263L1700.13 38.3672ZM1670.23 44.8872H1674.45C1675.33 44.8872 1676.19 45.0938 1676.98 45.4675C1677.77 45.8415 1678.49 46.3839 1679.11 47.0637C1679.73 47.7434 1680.23 48.5574 1680.58 49.4748C1680.94 50.3921 1681.13 51.4129 1681.13 52.5001C1681.13 53.48 1680.96 54.4522 1680.63 55.3711C1680.31 56.2716 1679.83 57.0984 1679.24 57.8007C1678.65 58.5029 1677.93 59.0811 1677.13 59.4832C1676.32 59.8853 1675.42 60.1101 1674.45 60.1101H1670.23L1670.23 44.8872ZM1746.92 59.7498V64.8238H1731.44V39.8155H1737.07V59.7485L1746.92 59.7498Z" fill="white"/>
<line opacity="0.5" x1="429.5" y1="36" x2="429.5" y2="68" stroke="white"/>
<line opacity="0.5" x1="834.5" y1="36" x2="834.5" y2="68" stroke="white"/>
<line opacity="0.5" x1="1239.5" y1="36" x2="1239.5" y2="68" stroke="white"/>
<line opacity="0.5" x1="1564.5" y1="36" x2="1564.5" y2="68" stroke="white"/>
<defs>
<clipPath id="clip0_3_180">
<rect width="163" height="25" fill="white" transform="translate(168 41)"/>
</clipPath>
<clipPath id="clip1_3_180">
<rect width="209" height="51" fill="white" transform="translate(531 28)"/>
</clipPath>
<clipPath id="clip2_3_180">
<rect width="209" height="28" fill="white" transform="translate(940 40)"/>
</clipPath>
</defs>
</svg>
