<svg width="1920" height="32" viewBox="0 0 1920 32" fill="none" xmlns="http://www.w3.org/2000/svg">
<rect width="1920" height="32" fill="#D264E4"/>
<path d="M24.035 10.9H26.791L22.982 20H18.913L15.156 10.9H17.99L20.98 18.687L24.035 10.9ZM34.8122 20L34.0712 18.245H28.8192L28.0782 20H25.4132L29.4042 10.9H33.5642L37.5682 20H34.8122ZM29.6902 16.217H33.2132L31.4452 12.057L29.6902 16.217ZM47.1242 10.9H49.7112V20H45.1222L41.3782 12.434V20H38.7912V10.9H43.3802L47.1242 18.466V10.9ZM57.2228 14.943H62.7608V19.233C61.0794 19.8483 59.3678 20.156 57.6258 20.156C55.6498 20.156 54.1114 19.7443 53.0108 18.921C51.9188 18.089 51.3728 16.932 51.3728 15.45C51.3728 13.968 51.8798 12.8153 52.8938 11.992C53.9078 11.16 55.3248 10.744 57.1448 10.744C58.5834 10.744 59.7664 11.0127 60.6938 11.55C61.6211 12.0873 62.2104 12.8197 62.4618 13.747L59.8228 13.916C59.6234 13.6213 59.2854 13.3873 58.8088 13.214C58.3321 13.032 57.7774 12.941 57.1448 12.941C56.1568 12.941 55.3984 13.1707 54.8698 13.63C54.3411 14.0807 54.0768 14.6873 54.0768 15.45C54.0768 16.23 54.3758 16.8453 54.9738 17.296C55.5804 17.738 56.4861 17.959 57.6908 17.959C58.5488 17.959 59.4198 17.8723 60.3038 17.699V16.724H57.2228V14.943ZM72.545 10.9H75.249V16.113C75.249 17.387 74.794 18.3793 73.884 19.09C72.974 19.8007 71.648 20.156 69.906 20.156C68.1553 20.156 66.825 19.8007 65.915 19.09C65.005 18.3793 64.55 17.387 64.55 16.113V10.9H67.254V15.84C67.254 16.4987 67.4663 17.0143 67.891 17.387C68.3243 17.7597 68.996 17.946 69.906 17.946C71.6653 17.946 72.545 17.244 72.545 15.84V10.9ZM85.3015 20L84.5605 18.245H79.3085L78.5675 20H75.9025L79.8935 10.9H84.0535L88.0575 20H85.3015ZM80.1795 16.217H83.7025L81.9345 12.057L80.1795 16.217ZM96.6515 20L93.6745 16.776H91.9845V20H89.2805V10.9H91.9845H95.7545C96.8465 10.9 97.7478 11.1513 98.4585 11.654C99.1778 12.1567 99.5375 12.915 99.5375 13.929C99.5375 15.5497 98.6058 16.4813 96.7425 16.724L100.07 20H96.6515ZM91.9845 13.058V14.748H95.6245C95.9971 14.748 96.2918 14.6787 96.5085 14.54C96.7251 14.4013 96.8335 14.1977 96.8335 13.929C96.8335 13.6603 96.7208 13.448 96.4955 13.292C96.2788 13.136 95.9885 13.058 95.6245 13.058H91.9845ZM106.514 10.9C108.3 10.9 109.708 11.2943 110.739 12.083C111.771 12.8717 112.286 13.994 112.286 15.45C112.286 16.906 111.771 18.0283 110.739 18.817C109.708 19.6057 108.3 20 106.514 20H101.366V10.9H106.514ZM106.228 17.79C107.329 17.79 108.161 17.5907 108.724 17.192C109.296 16.7847 109.582 16.204 109.582 15.45C109.582 14.696 109.296 14.1197 108.724 13.721C108.161 13.3137 107.329 13.11 106.228 13.11H104.07V17.79H106.228ZM124.944 17.257C124.589 17.6123 124.134 17.79 123.579 17.79C123.024 17.79 122.565 17.6123 122.201 17.257C121.846 16.9017 121.668 16.451 121.668 15.905C121.668 15.3677 121.846 14.9213 122.201 14.566C122.565 14.202 123.024 14.02 123.579 14.02C124.134 14.02 124.589 14.202 124.944 14.566C125.308 14.9213 125.49 15.3677 125.49 15.905C125.49 16.451 125.308 16.9017 124.944 17.257ZM143.333 10.9H146.089L142.28 20H138.211L134.454 10.9H137.288L140.278 18.687L143.333 10.9ZM154.11 20L153.369 18.245H148.117L147.376 20H144.711L148.702 10.9H152.862L156.866 20H154.11ZM148.988 16.217H152.511L150.743 12.057L148.988 16.217ZM166.422 10.9H169.009V20H164.42L160.676 12.434V20H158.089V10.9H162.678L166.422 18.466V10.9ZM176.521 14.943H182.059V19.233C180.377 19.8483 178.666 20.156 176.924 20.156C174.948 20.156 173.409 19.7443 172.309 18.921C171.217 18.089 170.671 16.932 170.671 15.45C170.671 13.968 171.178 12.8153 172.192 11.992C173.206 11.16 174.623 10.744 176.443 10.744C177.881 10.744 179.064 11.0127 179.992 11.55C180.919 12.0873 181.508 12.8197 181.76 13.747L179.121 13.916C178.921 13.6213 178.583 13.3873 178.107 13.214C177.63 13.032 177.075 12.941 176.443 12.941C175.455 12.941 174.696 13.1707 174.168 13.63C173.639 14.0807 173.375 14.6873 173.375 15.45C173.375 16.23 173.674 16.8453 174.272 17.296C174.878 17.738 175.784 17.959 176.989 17.959C177.847 17.959 178.718 17.8723 179.602 17.699V16.724H176.521V14.943ZM191.843 10.9H194.547V16.113C194.547 17.387 194.092 18.3793 193.182 19.09C192.272 19.8007 190.946 20.156 189.204 20.156C187.453 20.156 186.123 19.8007 185.213 19.09C184.303 18.3793 183.848 17.387 183.848 16.113V10.9H186.552V15.84C186.552 16.4987 186.764 17.0143 187.189 17.387C187.622 17.7597 188.294 17.946 189.204 17.946C190.963 17.946 191.843 17.244 191.843 15.84V10.9ZM204.599 20L203.858 18.245H198.606L197.865 20H195.2L199.191 10.9H203.351L207.355 20H204.599ZM199.477 16.217H203L201.232 12.057L199.477 16.217ZM215.949 20L212.972 16.776H211.282V20H208.578V10.9H211.282H215.052C216.144 10.9 217.046 11.1513 217.756 11.654C218.476 12.1567 218.835 12.915 218.835 13.929C218.835 15.5497 217.904 16.4813 216.04 16.724L219.368 20H215.949ZM211.282 13.058V14.748H214.922C215.295 14.748 215.59 14.6787 215.806 14.54C216.023 14.4013 216.131 14.1977 216.131 13.929C216.131 13.6603 216.019 13.448 215.793 13.292C215.577 13.136 215.286 13.058 214.922 13.058H211.282ZM225.812 10.9C227.598 10.9 229.006 11.2943 230.037 12.083C231.069 12.8717 231.584 13.994 231.584 15.45C231.584 16.906 231.069 18.0283 230.037 18.817C229.006 19.6057 227.598 20 225.812 20H220.664V10.9H225.812ZM225.526 17.79C226.627 17.79 227.459 17.5907 228.022 17.192C228.594 16.7847 228.88 16.204 228.88 15.45C228.88 14.696 228.594 14.1197 228.022 13.721C227.459 13.3137 226.627 13.11 225.526 13.11H223.368V17.79H225.526ZM244.242 17.257C243.887 17.6123 243.432 17.79 242.877 17.79C242.322 17.79 241.863 17.6123 241.499 17.257C241.144 16.9017 240.966 16.451 240.966 15.905C240.966 15.3677 241.144 14.9213 241.499 14.566C241.863 14.202 242.322 14.02 242.877 14.02C243.432 14.02 243.887 14.202 244.242 14.566C244.606 14.9213 244.788 15.3677 244.788 15.905C244.788 16.451 244.606 16.9017 244.242 17.257ZM262.631 10.9H265.387L261.578 20H257.509L253.752 10.9H256.586L259.576 18.687L262.631 10.9ZM273.408 20L272.667 18.245H267.415L266.674 20H264.009L268 10.9H272.16L276.164 20H273.408ZM268.286 16.217H271.809L270.041 12.057L268.286 16.217ZM285.72 10.9H288.307V20H283.718L279.974 12.434V20H277.387V10.9H281.976L285.72 18.466V10.9ZM295.818 14.943H301.356V19.233C299.675 19.8483 297.963 20.156 296.221 20.156C294.245 20.156 292.707 19.7443 291.606 18.921C290.514 18.089 289.968 16.932 289.968 15.45C289.968 13.968 290.475 12.8153 291.489 11.992C292.503 11.16 293.92 10.744 295.74 10.744C297.179 10.744 298.362 11.0127 299.289 11.55C300.217 12.0873 300.806 12.8197 301.057 13.747L298.418 13.916C298.219 13.6213 297.881 13.3873 297.404 13.214C296.928 13.032 296.373 12.941 295.74 12.941C294.752 12.941 293.994 13.1707 293.465 13.63C292.937 14.0807 292.672 14.6873 292.672 15.45C292.672 16.23 292.971 16.8453 293.569 17.296C294.176 17.738 295.082 17.959 296.286 17.959C297.144 17.959 298.015 17.8723 298.899 17.699V16.724H295.818V14.943ZM311.141 10.9H313.845V16.113C313.845 17.387 313.39 18.3793 312.48 19.09C311.57 19.8007 310.244 20.156 308.502 20.156C306.751 20.156 305.421 19.8007 304.511 19.09C303.601 18.3793 303.146 17.387 303.146 16.113V10.9H305.85V15.84C305.85 16.4987 306.062 17.0143 306.487 17.387C306.92 17.7597 307.592 17.946 308.502 17.946C310.261 17.946 311.141 17.244 311.141 15.84V10.9ZM323.897 20L323.156 18.245H317.904L317.163 20H314.498L318.489 10.9H322.649L326.653 20H323.897ZM318.775 16.217H322.298L320.53 12.057L318.775 16.217ZM335.247 20L332.27 16.776H330.58V20H327.876V10.9H330.58H334.35C335.442 10.9 336.344 11.1513 337.054 11.654C337.774 12.1567 338.133 12.915 338.133 13.929C338.133 15.5497 337.202 16.4813 335.338 16.724L338.666 20H335.247ZM330.58 13.058V14.748H334.22C334.593 14.748 334.888 14.6787 335.104 14.54C335.321 14.4013 335.429 14.1977 335.429 13.929C335.429 13.6603 335.317 13.448 335.091 13.292C334.875 13.136 334.584 13.058 334.22 13.058H330.58ZM345.11 10.9C346.895 10.9 348.304 11.2943 349.335 12.083C350.366 12.8717 350.882 13.994 350.882 15.45C350.882 16.906 350.366 18.0283 349.335 18.817C348.304 19.6057 346.895 20 345.11 20H339.962V10.9H345.11ZM344.824 17.79C345.925 17.79 346.757 17.5907 347.32 17.192C347.892 16.7847 348.178 16.204 348.178 15.45C348.178 14.696 347.892 14.1197 347.32 13.721C346.757 13.3137 345.925 13.11 344.824 13.11H342.666V17.79H344.824ZM363.54 17.257C363.184 17.6123 362.729 17.79 362.175 17.79C361.62 17.79 361.161 17.6123 360.797 17.257C360.441 16.9017 360.264 16.451 360.264 15.905C360.264 15.3677 360.441 14.9213 360.797 14.566C361.161 14.202 361.62 14.02 362.175 14.02C362.729 14.02 363.184 14.202 363.54 14.566C363.904 14.9213 364.086 15.3677 364.086 15.905C364.086 16.451 363.904 16.9017 363.54 17.257ZM381.929 10.9H384.685L380.876 20H376.807L373.05 10.9H375.884L378.874 18.687L381.929 10.9ZM392.706 20L391.965 18.245H386.713L385.972 20H383.307L387.298 10.9H391.458L395.462 20H392.706ZM387.584 16.217H391.107L389.339 12.057L387.584 16.217ZM405.018 10.9H407.605V20H403.016L399.272 12.434V20H396.685V10.9H401.274L405.018 18.466V10.9ZM415.116 14.943H420.654V19.233C418.973 19.8483 417.261 20.156 415.519 20.156C413.543 20.156 412.005 19.7443 410.904 18.921C409.812 18.089 409.266 16.932 409.266 15.45C409.266 13.968 409.773 12.8153 410.787 11.992C411.801 11.16 413.218 10.744 415.038 10.744C416.477 10.744 417.66 11.0127 418.587 11.55C419.515 12.0873 420.104 12.8197 420.355 13.747L417.716 13.916C417.517 13.6213 417.179 13.3873 416.702 13.214C416.226 13.032 415.671 12.941 415.038 12.941C414.05 12.941 413.292 13.1707 412.763 13.63C412.235 14.0807 411.97 14.6873 411.97 15.45C411.97 16.23 412.269 16.8453 412.867 17.296C413.474 17.738 414.38 17.959 415.584 17.959C416.442 17.959 417.313 17.8723 418.197 17.699V16.724H415.116V14.943ZM430.439 10.9H433.143V16.113C433.143 17.387 432.688 18.3793 431.778 19.09C430.868 19.8007 429.542 20.156 427.8 20.156C426.049 20.156 424.719 19.8007 423.809 19.09C422.899 18.3793 422.444 17.387 422.444 16.113V10.9H425.148V15.84C425.148 16.4987 425.36 17.0143 425.785 17.387C426.218 17.7597 426.89 17.946 427.8 17.946C429.559 17.946 430.439 17.244 430.439 15.84V10.9ZM443.195 20L442.454 18.245H437.202L436.461 20H433.796L437.787 10.9H441.947L445.951 20H443.195ZM438.073 16.217H441.596L439.828 12.057L438.073 16.217ZM454.545 20L451.568 16.776H449.878V20H447.174V10.9H449.878H453.648C454.74 10.9 455.641 11.1513 456.352 11.654C457.071 12.1567 457.431 12.915 457.431 13.929C457.431 15.5497 456.499 16.4813 454.636 16.724L457.964 20H454.545ZM449.878 13.058V14.748H453.518C453.891 14.748 454.185 14.6787 454.402 14.54C454.619 14.4013 454.727 14.1977 454.727 13.929C454.727 13.6603 454.614 13.448 454.389 13.292C454.172 13.136 453.882 13.058 453.518 13.058H449.878ZM464.408 10.9C466.193 10.9 467.602 11.2943 468.633 12.083C469.664 12.8717 470.18 13.994 470.18 15.45C470.18 16.906 469.664 18.0283 468.633 18.817C467.602 19.6057 466.193 20 464.408 20H459.26V10.9H464.408ZM464.122 17.79C465.223 17.79 466.055 17.5907 466.618 17.192C467.19 16.7847 467.476 16.204 467.476 15.45C467.476 14.696 467.19 14.1197 466.618 13.721C466.055 13.3137 465.223 13.11 464.122 13.11H461.964V17.79H464.122ZM482.838 17.257C482.482 17.6123 482.027 17.79 481.473 17.79C480.918 17.79 480.459 17.6123 480.095 17.257C479.739 16.9017 479.562 16.451 479.562 15.905C479.562 15.3677 479.739 14.9213 480.095 14.566C480.459 14.202 480.918 14.02 481.473 14.02C482.027 14.02 482.482 14.202 482.838 14.566C483.202 14.9213 483.384 15.3677 483.384 15.905C483.384 16.451 483.202 16.9017 482.838 17.257ZM501.226 10.9H503.982L500.173 20H496.104L492.347 10.9H495.181L498.171 18.687L501.226 10.9ZM512.004 20L511.263 18.245H506.011L505.27 20H502.605L506.596 10.9H510.756L514.76 20H512.004ZM506.882 16.217H510.405L508.637 12.057L506.882 16.217ZM524.316 10.9H526.903V20H522.314L518.57 12.434V20H515.983V10.9H520.572L524.316 18.466V10.9ZM534.414 14.943H539.952V19.233C538.271 19.8483 536.559 20.156 534.817 20.156C532.841 20.156 531.303 19.7443 530.202 18.921C529.11 18.089 528.564 16.932 528.564 15.45C528.564 13.968 529.071 12.8153 530.085 11.992C531.099 11.16 532.516 10.744 534.336 10.744C535.775 10.744 536.958 11.0127 537.885 11.55C538.813 12.0873 539.402 12.8197 539.653 13.747L537.014 13.916C536.815 13.6213 536.477 13.3873 536 13.214C535.524 13.032 534.969 12.941 534.336 12.941C533.348 12.941 532.59 13.1707 532.061 13.63C531.533 14.0807 531.268 14.6873 531.268 15.45C531.268 16.23 531.567 16.8453 532.165 17.296C532.772 17.738 533.678 17.959 534.882 17.959C535.74 17.959 536.611 17.8723 537.495 17.699V16.724H534.414V14.943ZM549.736 10.9H552.44V16.113C552.44 17.387 551.985 18.3793 551.075 19.09C550.165 19.8007 548.839 20.156 547.097 20.156C545.347 20.156 544.016 19.8007 543.106 19.09C542.196 18.3793 541.741 17.387 541.741 16.113V10.9H544.445V15.84C544.445 16.4987 544.658 17.0143 545.082 17.387C545.516 17.7597 546.187 17.946 547.097 17.946C548.857 17.946 549.736 17.244 549.736 15.84V10.9ZM562.493 20L561.752 18.245H556.5L555.759 20H553.094L557.085 10.9H561.245L565.249 20H562.493ZM557.371 16.217H560.894L559.126 12.057L557.371 16.217ZM573.843 20L570.866 16.776H569.176V20H566.472V10.9H569.176H572.946C574.038 10.9 574.939 11.1513 575.65 11.654C576.369 12.1567 576.729 12.915 576.729 13.929C576.729 15.5497 575.797 16.4813 573.934 16.724L577.262 20H573.843ZM569.176 13.058V14.748H572.816C573.189 14.748 573.483 14.6787 573.7 14.54C573.917 14.4013 574.025 14.1977 574.025 13.929C574.025 13.6603 573.912 13.448 573.687 13.292C573.47 13.136 573.18 13.058 572.816 13.058H569.176ZM583.706 10.9C585.491 10.9 586.899 11.2943 587.931 12.083C588.962 12.8717 589.478 13.994 589.478 15.45C589.478 16.906 588.962 18.0283 587.931 18.817C586.899 19.6057 585.491 20 583.706 20H578.558V10.9H583.706ZM583.42 17.79C584.52 17.79 585.352 17.5907 585.916 17.192C586.488 16.7847 586.774 16.204 586.774 15.45C586.774 14.696 586.488 14.1197 585.916 13.721C585.352 13.3137 584.52 13.11 583.42 13.11H581.262V17.79H583.42ZM602.135 17.257C601.78 17.6123 601.325 17.79 600.77 17.79C600.216 17.79 599.756 17.6123 599.392 17.257C599.037 16.9017 598.859 16.451 598.859 15.905C598.859 15.3677 599.037 14.9213 599.392 14.566C599.756 14.202 600.216 14.02 600.77 14.02C601.325 14.02 601.78 14.202 602.135 14.566C602.499 14.9213 602.681 15.3677 602.681 15.905C602.681 16.451 602.499 16.9017 602.135 17.257ZM620.524 10.9H623.28L619.471 20H615.402L611.645 10.9H614.479L617.469 18.687L620.524 10.9ZM631.301 20L630.56 18.245H625.308L624.567 20H621.902L625.893 10.9H630.053L634.057 20H631.301ZM626.179 16.217H629.702L627.934 12.057L626.179 16.217ZM643.613 10.9H646.2V20H641.611L637.867 12.434V20H635.28V10.9H639.869L643.613 18.466V10.9ZM653.712 14.943H659.25V19.233C657.569 19.8483 655.857 20.156 654.115 20.156C652.139 20.156 650.601 19.7443 649.5 18.921C648.408 18.089 647.862 16.932 647.862 15.45C647.862 13.968 648.369 12.8153 649.383 11.992C650.397 11.16 651.814 10.744 653.634 10.744C655.073 10.744 656.256 11.0127 657.183 11.55C658.11 12.0873 658.7 12.8197 658.951 13.747L656.312 13.916C656.113 13.6213 655.775 13.3873 655.298 13.214C654.821 13.032 654.267 12.941 653.634 12.941C652.646 12.941 651.888 13.1707 651.359 13.63C650.83 14.0807 650.566 14.6873 650.566 15.45C650.566 16.23 650.865 16.8453 651.463 17.296C652.07 17.738 652.975 17.959 654.18 17.959C655.038 17.959 655.909 17.8723 656.793 17.699V16.724H653.712V14.943ZM669.034 10.9H671.738V16.113C671.738 17.387 671.283 18.3793 670.373 19.09C669.463 19.8007 668.137 20.156 666.395 20.156C664.645 20.156 663.314 19.8007 662.404 19.09C661.494 18.3793 661.039 17.387 661.039 16.113V10.9H663.743V15.84C663.743 16.4987 663.956 17.0143 664.38 17.387C664.814 17.7597 665.485 17.946 666.395 17.946C668.155 17.946 669.034 17.244 669.034 15.84V10.9ZM681.791 20L681.05 18.245H675.798L675.057 20H672.392L676.383 10.9H680.543L684.547 20H681.791ZM676.669 16.217H680.192L678.424 12.057L676.669 16.217ZM693.141 20L690.164 16.776H688.474V20H685.77V10.9H688.474H692.244C693.336 10.9 694.237 11.1513 694.948 11.654C695.667 12.1567 696.027 12.915 696.027 13.929C696.027 15.5497 695.095 16.4813 693.232 16.724L696.56 20H693.141ZM688.474 13.058V14.748H692.114C692.486 14.748 692.781 14.6787 692.998 14.54C693.214 14.4013 693.323 14.1977 693.323 13.929C693.323 13.6603 693.21 13.448 692.985 13.292C692.768 13.136 692.478 13.058 692.114 13.058H688.474ZM703.004 10.9C704.789 10.9 706.197 11.2943 707.229 12.083C708.26 12.8717 708.776 13.994 708.776 15.45C708.776 16.906 708.26 18.0283 707.229 18.817C706.197 19.6057 704.789 20 703.004 20H697.856V10.9H703.004ZM702.718 17.79C703.818 17.79 704.65 17.5907 705.214 17.192C705.786 16.7847 706.072 16.204 706.072 15.45C706.072 14.696 705.786 14.1197 705.214 13.721C704.65 13.3137 703.818 13.11 702.718 13.11H700.56V17.79H702.718ZM721.433 17.257C721.078 17.6123 720.623 17.79 720.068 17.79C719.514 17.79 719.054 17.6123 718.69 17.257C718.335 16.9017 718.157 16.451 718.157 15.905C718.157 15.3677 718.335 14.9213 718.69 14.566C719.054 14.202 719.514 14.02 720.068 14.02C720.623 14.02 721.078 14.202 721.433 14.566C721.797 14.9213 721.979 15.3677 721.979 15.905C721.979 16.451 721.797 16.9017 721.433 17.257ZM739.822 10.9H742.578L738.769 20H734.7L730.943 10.9H733.777L736.767 18.687L739.822 10.9ZM750.599 20L749.858 18.245H744.606L743.865 20H741.2L745.191 10.9H749.351L753.355 20H750.599ZM745.477 16.217H749L747.232 12.057L745.477 16.217ZM762.911 10.9H765.498V20H760.909L757.165 12.434V20H754.578V10.9H759.167L762.911 18.466V10.9ZM773.01 14.943H778.548V19.233C776.867 19.8483 775.155 20.156 773.413 20.156C771.437 20.156 769.899 19.7443 768.798 18.921C767.706 18.089 767.16 16.932 767.16 15.45C767.16 13.968 767.667 12.8153 768.681 11.992C769.695 11.16 771.112 10.744 772.932 10.744C774.371 10.744 775.554 11.0127 776.481 11.55C777.408 12.0873 777.998 12.8197 778.249 13.747L775.61 13.916C775.411 13.6213 775.073 13.3873 774.596 13.214C774.119 13.032 773.565 12.941 772.932 12.941C771.944 12.941 771.186 13.1707 770.657 13.63C770.128 14.0807 769.864 14.6873 769.864 15.45C769.864 16.23 770.163 16.8453 770.761 17.296C771.368 17.738 772.273 17.959 773.478 17.959C774.336 17.959 775.207 17.8723 776.091 17.699V16.724H773.01V14.943ZM788.332 10.9H791.036V16.113C791.036 17.387 790.581 18.3793 789.671 19.09C788.761 19.8007 787.435 20.156 785.693 20.156C783.942 20.156 782.612 19.8007 781.702 19.09C780.792 18.3793 780.337 17.387 780.337 16.113V10.9H783.041V15.84C783.041 16.4987 783.253 17.0143 783.678 17.387C784.111 17.7597 784.783 17.946 785.693 17.946C787.452 17.946 788.332 17.244 788.332 15.84V10.9ZM801.089 20L800.348 18.245H795.096L794.355 20H791.69L795.681 10.9H799.841L803.845 20H801.089ZM795.967 16.217H799.49L797.722 12.057L795.967 16.217ZM812.439 20L809.462 16.776H807.772V20H805.068V10.9H807.772H811.542C812.634 10.9 813.535 11.1513 814.246 11.654C814.965 12.1567 815.325 12.915 815.325 13.929C815.325 15.5497 814.393 16.4813 812.53 16.724L815.858 20H812.439ZM807.772 13.058V14.748H811.412C811.784 14.748 812.079 14.6787 812.296 14.54C812.512 14.4013 812.621 14.1977 812.621 13.929C812.621 13.6603 812.508 13.448 812.283 13.292C812.066 13.136 811.776 13.058 811.412 13.058H807.772ZM822.302 10.9C824.087 10.9 825.495 11.2943 826.527 12.083C827.558 12.8717 828.074 13.994 828.074 15.45C828.074 16.906 827.558 18.0283 826.527 18.817C825.495 19.6057 824.087 20 822.302 20H817.154V10.9H822.302ZM822.016 17.79C823.116 17.79 823.948 17.5907 824.512 17.192C825.084 16.7847 825.37 16.204 825.37 15.45C825.37 14.696 825.084 14.1197 824.512 13.721C823.948 13.3137 823.116 13.11 822.016 13.11H819.858V17.79H822.016ZM840.731 17.257C840.376 17.6123 839.921 17.79 839.366 17.79C838.811 17.79 838.352 17.6123 837.988 17.257C837.633 16.9017 837.455 16.451 837.455 15.905C837.455 15.3677 837.633 14.9213 837.988 14.566C838.352 14.202 838.811 14.02 839.366 14.02C839.921 14.02 840.376 14.202 840.731 14.566C841.095 14.9213 841.277 15.3677 841.277 15.905C841.277 16.451 841.095 16.9017 840.731 17.257ZM859.12 10.9H861.876L858.067 20H853.998L850.241 10.9H853.075L856.065 18.687L859.12 10.9ZM869.897 20L869.156 18.245H863.904L863.163 20H860.498L864.489 10.9H868.649L872.653 20H869.897ZM864.775 16.217H868.298L866.53 12.057L864.775 16.217ZM882.209 10.9H884.796V20H880.207L876.463 12.434V20H873.876V10.9H878.465L882.209 18.466V10.9ZM892.308 14.943H897.846V19.233C896.164 19.8483 894.453 20.156 892.711 20.156C890.735 20.156 889.196 19.7443 888.096 18.921C887.004 18.089 886.458 16.932 886.458 15.45C886.458 13.968 886.965 12.8153 887.979 11.992C888.993 11.16 890.41 10.744 892.23 10.744C893.668 10.744 894.851 11.0127 895.779 11.55C896.706 12.0873 897.295 12.8197 897.547 13.747L894.908 13.916C894.708 13.6213 894.37 13.3873 893.894 13.214C893.417 13.032 892.862 12.941 892.23 12.941C891.242 12.941 890.483 13.1707 889.955 13.63C889.426 14.0807 889.162 14.6873 889.162 15.45C889.162 16.23 889.461 16.8453 890.059 17.296C890.665 17.738 891.571 17.959 892.776 17.959C893.634 17.959 894.505 17.8723 895.389 17.699V16.724H892.308V14.943ZM907.63 10.9H910.334V16.113C910.334 17.387 909.879 18.3793 908.969 19.09C908.059 19.8007 906.733 20.156 904.991 20.156C903.24 20.156 901.91 19.8007 901 19.09C900.09 18.3793 899.635 17.387 899.635 16.113V10.9H902.339V15.84C902.339 16.4987 902.551 17.0143 902.976 17.387C903.409 17.7597 904.081 17.946 904.991 17.946C906.75 17.946 907.63 17.244 907.63 15.84V10.9ZM920.386 20L919.645 18.245H914.393L913.652 20H910.987L914.978 10.9H919.138L923.142 20H920.386ZM915.264 16.217H918.787L917.019 12.057L915.264 16.217ZM931.736 20L928.759 16.776H927.069V20H924.365V10.9H927.069H930.839C931.931 10.9 932.833 11.1513 933.543 11.654C934.263 12.1567 934.622 12.915 934.622 13.929C934.622 15.5497 933.691 16.4813 931.827 16.724L935.155 20H931.736ZM927.069 13.058V14.748H930.709C931.082 14.748 931.377 14.6787 931.593 14.54C931.81 14.4013 931.918 14.1977 931.918 13.929C931.918 13.6603 931.806 13.448 931.58 13.292C931.364 13.136 931.073 13.058 930.709 13.058H927.069ZM941.599 10.9C943.385 10.9 944.793 11.2943 945.824 12.083C946.856 12.8717 947.371 13.994 947.371 15.45C947.371 16.906 946.856 18.0283 945.824 18.817C944.793 19.6057 943.385 20 941.599 20H936.451V10.9H941.599ZM941.313 17.79C942.414 17.79 943.246 17.5907 943.809 17.192C944.381 16.7847 944.667 16.204 944.667 15.45C944.667 14.696 944.381 14.1197 943.809 13.721C943.246 13.3137 942.414 13.11 941.313 13.11H939.155V17.79H941.313ZM960.029 17.257C959.674 17.6123 959.219 17.79 958.664 17.79C958.109 17.79 957.65 17.6123 957.286 17.257C956.931 16.9017 956.753 16.451 956.753 15.905C956.753 15.3677 956.931 14.9213 957.286 14.566C957.65 14.202 958.109 14.02 958.664 14.02C959.219 14.02 959.674 14.202 960.029 14.566C960.393 14.9213 960.575 15.3677 960.575 15.905C960.575 16.451 960.393 16.9017 960.029 17.257ZM978.418 10.9H981.174L977.365 20H973.296L969.539 10.9H972.373L975.363 18.687L978.418 10.9ZM989.195 20L988.454 18.245H983.202L982.461 20H979.796L983.787 10.9H987.947L991.951 20H989.195ZM984.073 16.217H987.596L985.828 12.057L984.073 16.217ZM1001.51 10.9H1004.09V20H999.505L995.761 12.434V20H993.174V10.9H997.763L1001.51 18.466V10.9ZM1011.61 14.943H1017.14V19.233C1015.46 19.8483 1013.75 20.156 1012.01 20.156C1010.03 20.156 1008.49 19.7443 1007.39 18.921C1006.3 18.089 1005.76 16.932 1005.76 15.45C1005.76 13.968 1006.26 12.8153 1007.28 11.992C1008.29 11.16 1009.71 10.744 1011.53 10.744C1012.97 10.744 1014.15 11.0127 1015.08 11.55C1016 12.0873 1016.59 12.8197 1016.84 13.747L1014.21 13.916C1014.01 13.6213 1013.67 13.3873 1013.19 13.214C1012.71 13.032 1012.16 12.941 1011.53 12.941C1010.54 12.941 1009.78 13.1707 1009.25 13.63C1008.72 14.0807 1008.46 14.6873 1008.46 15.45C1008.46 16.23 1008.76 16.8453 1009.36 17.296C1009.96 17.738 1010.87 17.959 1012.07 17.959C1012.93 17.959 1013.8 17.8723 1014.69 17.699V16.724H1011.61V14.943ZM1026.93 10.9H1029.63V16.113C1029.63 17.387 1029.18 18.3793 1028.27 19.09C1027.36 19.8007 1026.03 20.156 1024.29 20.156C1022.54 20.156 1021.21 19.8007 1020.3 19.09C1019.39 18.3793 1018.93 17.387 1018.93 16.113V10.9H1021.64V15.84C1021.64 16.4987 1021.85 17.0143 1022.27 17.387C1022.71 17.7597 1023.38 17.946 1024.29 17.946C1026.05 17.946 1026.93 17.244 1026.93 15.84V10.9ZM1039.68 20L1038.94 18.245H1033.69L1032.95 20H1030.29L1034.28 10.9H1038.44L1042.44 20H1039.68ZM1034.56 16.217H1038.09L1036.32 12.057L1034.56 16.217ZM1051.03 20L1048.06 16.776H1046.37V20H1043.66V10.9H1046.37H1050.14C1051.23 10.9 1052.13 11.1513 1052.84 11.654C1053.56 12.1567 1053.92 12.915 1053.92 13.929C1053.92 15.5497 1052.99 16.4813 1051.13 16.724L1054.45 20H1051.03ZM1046.37 13.058V14.748H1050.01C1050.38 14.748 1050.67 14.6787 1050.89 14.54C1051.11 14.4013 1051.22 14.1977 1051.22 13.929C1051.22 13.6603 1051.1 13.448 1050.88 13.292C1050.66 13.136 1050.37 13.058 1050.01 13.058H1046.37ZM1060.9 10.9C1062.68 10.9 1064.09 11.2943 1065.12 12.083C1066.15 12.8717 1066.67 13.994 1066.67 15.45C1066.67 16.906 1066.15 18.0283 1065.12 18.817C1064.09 19.6057 1062.68 20 1060.9 20H1055.75V10.9H1060.9ZM1060.61 17.79C1061.71 17.79 1062.54 17.5907 1063.11 17.192C1063.68 16.7847 1063.97 16.204 1063.97 15.45C1063.97 14.696 1063.68 14.1197 1063.11 13.721C1062.54 13.3137 1061.71 13.11 1060.61 13.11H1058.45V17.79H1060.61ZM1079.33 17.257C1078.97 17.6123 1078.52 17.79 1077.96 17.79C1077.41 17.79 1076.95 17.6123 1076.58 17.257C1076.23 16.9017 1076.05 16.451 1076.05 15.905C1076.05 15.3677 1076.23 14.9213 1076.58 14.566C1076.95 14.202 1077.41 14.02 1077.96 14.02C1078.52 14.02 1078.97 14.202 1079.33 14.566C1079.69 14.9213 1079.87 15.3677 1079.87 15.905C1079.87 16.451 1079.69 16.9017 1079.33 17.257ZM1097.72 10.9H1100.47L1096.66 20H1092.59L1088.84 10.9H1091.67L1094.66 18.687L1097.72 10.9ZM1108.49 20L1107.75 18.245H1102.5L1101.76 20H1099.09L1103.08 10.9H1107.24L1111.25 20H1108.49ZM1103.37 16.217H1106.89L1105.13 12.057L1103.37 16.217ZM1120.8 10.9H1123.39V20H1118.8L1115.06 12.434V20H1112.47V10.9H1117.06L1120.8 18.466V10.9ZM1130.9 14.943H1136.44V19.233C1134.76 19.8483 1133.05 20.156 1131.31 20.156C1129.33 20.156 1127.79 19.7443 1126.69 18.921C1125.6 18.089 1125.05 16.932 1125.05 15.45C1125.05 13.968 1125.56 12.8153 1126.57 11.992C1127.59 11.16 1129.01 10.744 1130.83 10.744C1132.26 10.744 1133.45 11.0127 1134.37 11.55C1135.3 12.0873 1135.89 12.8197 1136.14 13.747L1133.5 13.916C1133.3 13.6213 1132.97 13.3873 1132.49 13.214C1132.01 13.032 1131.46 12.941 1130.83 12.941C1129.84 12.941 1129.08 13.1707 1128.55 13.63C1128.02 14.0807 1127.76 14.6873 1127.76 15.45C1127.76 16.23 1128.06 16.8453 1128.65 17.296C1129.26 17.738 1130.17 17.959 1131.37 17.959C1132.23 17.959 1133.1 17.8723 1133.98 17.699V16.724H1130.9V14.943ZM1146.23 10.9H1148.93V16.113C1148.93 17.387 1148.47 18.3793 1147.56 19.09C1146.65 19.8007 1145.33 20.156 1143.59 20.156C1141.84 20.156 1140.51 19.8007 1139.6 19.09C1138.69 18.3793 1138.23 17.387 1138.23 16.113V10.9H1140.93V15.84C1140.93 16.4987 1141.15 17.0143 1141.57 17.387C1142.01 17.7597 1142.68 17.946 1143.59 17.946C1145.35 17.946 1146.23 17.244 1146.23 15.84V10.9ZM1158.98 20L1158.24 18.245H1152.99L1152.25 20H1149.58L1153.57 10.9H1157.73L1161.74 20H1158.98ZM1153.86 16.217H1157.38L1155.62 12.057L1153.86 16.217ZM1170.33 20L1167.36 16.776H1165.67V20H1162.96V10.9H1165.67H1169.44C1170.53 10.9 1171.43 11.1513 1172.14 11.654C1172.86 12.1567 1173.22 12.915 1173.22 13.929C1173.22 15.5497 1172.29 16.4813 1170.42 16.724L1173.75 20H1170.33ZM1165.67 13.058V14.748H1169.31C1169.68 14.748 1169.97 14.6787 1170.19 14.54C1170.41 14.4013 1170.51 14.1977 1170.51 13.929C1170.51 13.6603 1170.4 13.448 1170.18 13.292C1169.96 13.136 1169.67 13.058 1169.31 13.058H1165.67ZM1180.2 10.9C1181.98 10.9 1183.39 11.2943 1184.42 12.083C1185.45 12.8717 1185.97 13.994 1185.97 15.45C1185.97 16.906 1185.45 18.0283 1184.42 18.817C1183.39 19.6057 1181.98 20 1180.2 20H1175.05V10.9H1180.2ZM1179.91 17.79C1181.01 17.79 1181.84 17.5907 1182.41 17.192C1182.98 16.7847 1183.26 16.204 1183.26 15.45C1183.26 14.696 1182.98 14.1197 1182.41 13.721C1181.84 13.3137 1181.01 13.11 1179.91 13.11H1177.75V17.79H1179.91ZM1198.62 17.257C1198.27 17.6123 1197.81 17.79 1197.26 17.79C1196.71 17.79 1196.25 17.6123 1195.88 17.257C1195.53 16.9017 1195.35 16.451 1195.35 15.905C1195.35 15.3677 1195.53 14.9213 1195.88 14.566C1196.25 14.202 1196.71 14.02 1197.26 14.02C1197.81 14.02 1198.27 14.202 1198.62 14.566C1198.99 14.9213 1199.17 15.3677 1199.17 15.905C1199.17 16.451 1198.99 16.9017 1198.62 17.257ZM1217.01 10.9H1219.77L1215.96 20H1211.89L1208.13 10.9H1210.97L1213.96 18.687L1217.01 10.9ZM1227.79 20L1227.05 18.245H1221.8L1221.06 20H1218.39L1222.38 10.9H1226.54L1230.55 20H1227.79ZM1222.67 16.217H1226.19L1224.42 12.057L1222.67 16.217ZM1240.1 10.9H1242.69V20H1238.1L1234.36 12.434V20H1231.77V10.9H1236.36L1240.1 18.466V10.9ZM1250.2 14.943H1255.74V19.233C1254.06 19.8483 1252.35 20.156 1250.6 20.156C1248.63 20.156 1247.09 19.7443 1245.99 18.921C1244.9 18.089 1244.35 16.932 1244.35 15.45C1244.35 13.968 1244.86 12.8153 1245.87 11.992C1246.89 11.16 1248.3 10.744 1250.12 10.744C1251.56 10.744 1252.74 11.0127 1253.67 11.55C1254.6 12.0873 1255.19 12.8197 1255.44 13.747L1252.8 13.916C1252.6 13.6213 1252.26 13.3873 1251.79 13.214C1251.31 13.032 1250.76 12.941 1250.12 12.941C1249.14 12.941 1248.38 13.1707 1247.85 13.63C1247.32 14.0807 1247.06 14.6873 1247.06 15.45C1247.06 16.23 1247.35 16.8453 1247.95 17.296C1248.56 17.738 1249.46 17.959 1250.67 17.959C1251.53 17.959 1252.4 17.8723 1253.28 17.699V16.724H1250.2V14.943ZM1265.52 10.9H1268.23V16.113C1268.23 17.387 1267.77 18.3793 1266.86 19.09C1265.95 19.8007 1264.63 20.156 1262.88 20.156C1261.13 20.156 1259.8 19.8007 1258.89 19.09C1257.98 18.3793 1257.53 17.387 1257.53 16.113V10.9H1260.23V15.84C1260.23 16.4987 1260.44 17.0143 1260.87 17.387C1261.3 17.7597 1261.97 17.946 1262.88 17.946C1264.64 17.946 1265.52 17.244 1265.52 15.84V10.9ZM1278.28 20L1277.54 18.245H1272.29L1271.55 20H1268.88L1272.87 10.9H1277.03L1281.04 20H1278.28ZM1273.16 16.217H1276.68L1274.91 12.057L1273.16 16.217ZM1289.63 20L1286.65 16.776H1284.96V20H1282.26V10.9H1284.96H1288.73C1289.82 10.9 1290.73 11.1513 1291.44 11.654C1292.16 12.1567 1292.52 12.915 1292.52 13.929C1292.52 15.5497 1291.58 16.4813 1289.72 16.724L1293.05 20H1289.63ZM1284.96 13.058V14.748H1288.6C1288.98 14.748 1289.27 14.6787 1289.49 14.54C1289.7 14.4013 1289.81 14.1977 1289.81 13.929C1289.81 13.6603 1289.7 13.448 1289.47 13.292C1289.26 13.136 1288.97 13.058 1288.6 13.058H1284.96ZM1299.49 10.9C1301.28 10.9 1302.69 11.2943 1303.72 12.083C1304.75 12.8717 1305.26 13.994 1305.26 15.45C1305.26 16.906 1304.75 18.0283 1303.72 18.817C1302.69 19.6057 1301.28 20 1299.49 20H1294.34V10.9H1299.49ZM1299.21 17.79C1300.31 17.79 1301.14 17.5907 1301.7 17.192C1302.27 16.7847 1302.56 16.204 1302.56 15.45C1302.56 14.696 1302.27 14.1197 1301.7 13.721C1301.14 13.3137 1300.31 13.11 1299.21 13.11H1297.05V17.79H1299.21ZM1317.92 17.257C1317.57 17.6123 1317.11 17.79 1316.56 17.79C1316 17.79 1315.54 17.6123 1315.18 17.257C1314.82 16.9017 1314.65 16.451 1314.65 15.905C1314.65 15.3677 1314.82 14.9213 1315.18 14.566C1315.54 14.202 1316 14.02 1316.56 14.02C1317.11 14.02 1317.57 14.202 1317.92 14.566C1318.29 14.9213 1318.47 15.3677 1318.47 15.905C1318.47 16.451 1318.29 16.9017 1317.92 17.257ZM1336.31 10.9H1339.07L1335.26 20H1331.19L1327.43 10.9H1330.27L1333.26 18.687L1336.31 10.9ZM1347.09 20L1346.35 18.245H1341.1L1340.35 20H1337.69L1341.68 10.9H1345.84L1349.84 20H1347.09ZM1341.97 16.217H1345.49L1343.72 12.057L1341.97 16.217ZM1359.4 10.9H1361.99V20H1357.4L1353.65 12.434V20H1351.07V10.9H1355.66L1359.4 18.466V10.9ZM1369.5 14.943H1375.04V19.233C1373.36 19.8483 1371.64 20.156 1369.9 20.156C1367.93 20.156 1366.39 19.7443 1365.29 18.921C1364.2 18.089 1363.65 16.932 1363.65 15.45C1363.65 13.968 1364.16 12.8153 1365.17 11.992C1366.18 11.16 1367.6 10.744 1369.42 10.744C1370.86 10.744 1372.04 11.0127 1372.97 11.55C1373.9 12.0873 1374.49 12.8197 1374.74 13.747L1372.1 13.916C1371.9 13.6213 1371.56 13.3873 1371.09 13.214C1370.61 13.032 1370.05 12.941 1369.42 12.941C1368.43 12.941 1367.67 13.1707 1367.15 13.63C1366.62 14.0807 1366.35 14.6873 1366.35 15.45C1366.35 16.23 1366.65 16.8453 1367.25 17.296C1367.86 17.738 1368.76 17.959 1369.97 17.959C1370.83 17.959 1371.7 17.8723 1372.58 17.699V16.724H1369.5V14.943ZM1384.82 10.9H1387.53V16.113C1387.53 17.387 1387.07 18.3793 1386.16 19.09C1385.25 19.8007 1383.92 20.156 1382.18 20.156C1380.43 20.156 1379.1 19.8007 1378.19 19.09C1377.28 18.3793 1376.83 17.387 1376.83 16.113V10.9H1379.53V15.84C1379.53 16.4987 1379.74 17.0143 1380.17 17.387C1380.6 17.7597 1381.27 17.946 1382.18 17.946C1383.94 17.946 1384.82 17.244 1384.82 15.84V10.9ZM1397.58 20L1396.84 18.245H1391.58L1390.84 20H1388.18L1392.17 10.9H1396.33L1400.33 20H1397.58ZM1392.46 16.217H1395.98L1394.21 12.057L1392.46 16.217ZM1408.93 20L1405.95 16.776H1404.26V20H1401.56V10.9H1404.26H1408.03C1409.12 10.9 1410.02 11.1513 1410.73 11.654C1411.45 12.1567 1411.81 12.915 1411.81 13.929C1411.81 15.5497 1410.88 16.4813 1409.02 16.724L1412.35 20H1408.93ZM1404.26 13.058V14.748H1407.9C1408.27 14.748 1408.57 14.6787 1408.78 14.54C1409 14.4013 1409.11 14.1977 1409.11 13.929C1409.11 13.6603 1409 13.448 1408.77 13.292C1408.56 13.136 1408.26 13.058 1407.9 13.058H1404.26ZM1418.79 10.9C1420.58 10.9 1421.98 11.2943 1423.02 12.083C1424.05 12.8717 1424.56 13.994 1424.56 15.45C1424.56 16.906 1424.05 18.0283 1423.02 18.817C1421.98 19.6057 1420.58 20 1418.79 20H1413.64V10.9H1418.79ZM1418.5 17.79C1419.61 17.79 1420.44 17.5907 1421 17.192C1421.57 16.7847 1421.86 16.204 1421.86 15.45C1421.86 14.696 1421.57 14.1197 1421 13.721C1420.44 13.3137 1419.61 13.11 1418.5 13.11H1416.35V17.79H1418.5ZM1437.22 17.257C1436.87 17.6123 1436.41 17.79 1435.86 17.79C1435.3 17.79 1434.84 17.6123 1434.48 17.257C1434.12 16.9017 1433.94 16.451 1433.94 15.905C1433.94 15.3677 1434.12 14.9213 1434.48 14.566C1434.84 14.202 1435.3 14.02 1435.86 14.02C1436.41 14.02 1436.87 14.202 1437.22 14.566C1437.58 14.9213 1437.77 15.3677 1437.77 15.905C1437.77 16.451 1437.58 16.9017 1437.22 17.257ZM1455.61 10.9H1458.37L1454.56 20H1450.49L1446.73 10.9H1449.56L1452.55 18.687L1455.61 10.9ZM1466.39 20L1465.65 18.245H1460.39L1459.65 20H1456.99L1460.98 10.9H1465.14L1469.14 20H1466.39ZM1461.26 16.217H1464.79L1463.02 12.057L1461.26 16.217ZM1478.7 10.9H1481.29V20H1476.7L1472.95 12.434V20H1470.37V10.9H1474.95L1478.7 18.466V10.9ZM1488.8 14.943H1494.34V19.233C1492.65 19.8483 1490.94 20.156 1489.2 20.156C1487.22 20.156 1485.69 19.7443 1484.59 18.921C1483.49 18.089 1482.95 16.932 1482.95 15.45C1482.95 13.968 1483.45 12.8153 1484.47 11.992C1485.48 11.16 1486.9 10.744 1488.72 10.744C1490.16 10.744 1491.34 11.0127 1492.27 11.55C1493.2 12.0873 1493.78 12.8197 1494.04 13.747L1491.4 13.916C1491.2 13.6213 1490.86 13.3873 1490.38 13.214C1489.91 13.032 1489.35 12.941 1488.72 12.941C1487.73 12.941 1486.97 13.1707 1486.44 13.63C1485.92 14.0807 1485.65 14.6873 1485.65 15.45C1485.65 16.23 1485.95 16.8453 1486.55 17.296C1487.15 17.738 1488.06 17.959 1489.27 17.959C1490.12 17.959 1490.99 17.8723 1491.88 17.699V16.724H1488.8V14.943ZM1504.12 10.9H1506.82V16.113C1506.82 17.387 1506.37 18.3793 1505.46 19.09C1504.55 19.8007 1503.22 20.156 1501.48 20.156C1499.73 20.156 1498.4 19.8007 1497.49 19.09C1496.58 18.3793 1496.12 17.387 1496.12 16.113V10.9H1498.83V15.84C1498.83 16.4987 1499.04 17.0143 1499.47 17.387C1499.9 17.7597 1500.57 17.946 1501.48 17.946C1503.24 17.946 1504.12 17.244 1504.12 15.84V10.9ZM1516.88 20L1516.13 18.245H1510.88L1510.14 20H1507.48L1511.47 10.9H1515.63L1519.63 20H1516.88ZM1511.75 16.217H1515.28L1513.51 12.057L1511.75 16.217ZM1528.23 20L1525.25 16.776H1523.56V20H1520.85V10.9H1523.56H1527.33C1528.42 10.9 1529.32 11.1513 1530.03 11.654C1530.75 12.1567 1531.11 12.915 1531.11 13.929C1531.11 15.5497 1530.18 16.4813 1528.32 16.724L1531.64 20H1528.23ZM1523.56 13.058V14.748H1527.2C1527.57 14.748 1527.87 14.6787 1528.08 14.54C1528.3 14.4013 1528.41 14.1977 1528.41 13.929C1528.41 13.6603 1528.3 13.448 1528.07 13.292C1527.85 13.136 1527.56 13.058 1527.2 13.058H1523.56ZM1538.09 10.9C1539.87 10.9 1541.28 11.2943 1542.31 12.083C1543.34 12.8717 1543.86 13.994 1543.86 15.45C1543.86 16.906 1543.34 18.0283 1542.31 18.817C1541.28 19.6057 1539.87 20 1538.09 20H1532.94V10.9H1538.09ZM1537.8 17.79C1538.9 17.79 1539.74 17.5907 1540.3 17.192C1540.87 16.7847 1541.16 16.204 1541.16 15.45C1541.16 14.696 1540.87 14.1197 1540.3 13.721C1539.74 13.3137 1538.9 13.11 1537.8 13.11H1535.64V17.79H1537.8ZM1556.52 17.257C1556.16 17.6123 1555.71 17.79 1555.15 17.79C1554.6 17.79 1554.14 17.6123 1553.78 17.257C1553.42 16.9017 1553.24 16.451 1553.24 15.905C1553.24 15.3677 1553.42 14.9213 1553.78 14.566C1554.14 14.202 1554.6 14.02 1555.15 14.02C1555.71 14.02 1556.16 14.202 1556.52 14.566C1556.88 14.9213 1557.06 15.3677 1557.06 15.905C1557.06 16.451 1556.88 16.9017 1556.52 17.257ZM1574.91 10.9H1577.66L1573.85 20H1569.79L1566.03 10.9H1568.86L1571.85 18.687L1574.91 10.9ZM1585.68 20L1584.94 18.245H1579.69L1578.95 20H1576.29L1580.28 10.9H1584.44L1588.44 20H1585.68ZM1580.56 16.217H1584.09L1582.32 12.057L1580.56 16.217ZM1598 10.9H1600.58V20H1595.99L1592.25 12.434V20H1589.66V10.9H1594.25L1598 18.466V10.9ZM1608.09 14.943H1613.63V19.233C1611.95 19.8483 1610.24 20.156 1608.5 20.156C1606.52 20.156 1604.98 19.7443 1603.88 18.921C1602.79 18.089 1602.24 16.932 1602.24 15.45C1602.24 13.968 1602.75 12.8153 1603.77 11.992C1604.78 11.16 1606.2 10.744 1608.02 10.744C1609.46 10.744 1610.64 11.0127 1611.57 11.55C1612.49 12.0873 1613.08 12.8197 1613.33 13.747L1610.69 13.916C1610.5 13.6213 1610.16 13.3873 1609.68 13.214C1609.2 13.032 1608.65 12.941 1608.02 12.941C1607.03 12.941 1606.27 13.1707 1605.74 13.63C1605.21 14.0807 1604.95 14.6873 1604.95 15.45C1604.95 16.23 1605.25 16.8453 1605.85 17.296C1606.45 17.738 1607.36 17.959 1608.56 17.959C1609.42 17.959 1610.29 17.8723 1611.18 17.699V16.724H1608.09V14.943ZM1623.42 10.9H1626.12V16.113C1626.12 17.387 1625.67 18.3793 1624.76 19.09C1623.85 19.8007 1622.52 20.156 1620.78 20.156C1619.03 20.156 1617.7 19.8007 1616.79 19.09C1615.88 18.3793 1615.42 17.387 1615.42 16.113V10.9H1618.13V15.84C1618.13 16.4987 1618.34 17.0143 1618.76 17.387C1619.2 17.7597 1619.87 17.946 1620.78 17.946C1622.54 17.946 1623.42 17.244 1623.42 15.84V10.9ZM1636.17 20L1635.43 18.245H1630.18L1629.44 20H1626.77L1630.77 10.9H1634.93L1638.93 20H1636.17ZM1631.05 16.217H1634.57L1632.81 12.057L1631.05 16.217ZM1647.52 20L1644.55 16.776H1642.86V20H1640.15V10.9H1642.86H1646.63C1647.72 10.9 1648.62 11.1513 1649.33 11.654C1650.05 12.1567 1650.41 12.915 1650.41 13.929C1650.41 15.5497 1649.48 16.4813 1647.61 16.724L1650.94 20H1647.52ZM1642.86 13.058V14.748H1646.5C1646.87 14.748 1647.16 14.6787 1647.38 14.54C1647.6 14.4013 1647.71 14.1977 1647.71 13.929C1647.71 13.6603 1647.59 13.448 1647.37 13.292C1647.15 13.136 1646.86 13.058 1646.5 13.058H1642.86ZM1657.39 10.9C1659.17 10.9 1660.58 11.2943 1661.61 12.083C1662.64 12.8717 1663.16 13.994 1663.16 15.45C1663.16 16.906 1662.64 18.0283 1661.61 18.817C1660.58 19.6057 1659.17 20 1657.39 20H1652.24V10.9H1657.39ZM1657.1 17.79C1658.2 17.79 1659.03 17.5907 1659.6 17.192C1660.17 16.7847 1660.45 16.204 1660.45 15.45C1660.45 14.696 1660.17 14.1197 1659.6 13.721C1659.03 13.3137 1658.2 13.11 1657.1 13.11H1654.94V17.79H1657.1ZM1675.82 17.257C1675.46 17.6123 1675.01 17.79 1674.45 17.79C1673.9 17.79 1673.44 17.6123 1673.07 17.257C1672.72 16.9017 1672.54 16.451 1672.54 15.905C1672.54 15.3677 1672.72 14.9213 1673.07 14.566C1673.44 14.202 1673.9 14.02 1674.45 14.02C1675.01 14.02 1675.46 14.202 1675.82 14.566C1676.18 14.9213 1676.36 15.3677 1676.36 15.905C1676.36 16.451 1676.18 16.9017 1675.82 17.257ZM1694.2 10.9H1696.96L1693.15 20H1689.08L1685.33 10.9H1688.16L1691.15 18.687L1694.2 10.9ZM1704.98 20L1704.24 18.245H1698.99L1698.25 20H1695.58L1699.57 10.9H1703.73L1707.74 20H1704.98ZM1699.86 16.217H1703.38L1701.62 12.057L1699.86 16.217ZM1717.29 10.9H1719.88V20H1715.29L1711.55 12.434V20H1708.96V10.9H1713.55L1717.29 18.466V10.9ZM1727.39 14.943H1732.93V19.233C1731.25 19.8483 1729.54 20.156 1727.8 20.156C1725.82 20.156 1724.28 19.7443 1723.18 18.921C1722.09 18.089 1721.54 16.932 1721.54 15.45C1721.54 13.968 1722.05 12.8153 1723.06 11.992C1724.08 11.16 1725.49 10.744 1727.31 10.744C1728.75 10.744 1729.94 11.0127 1730.86 11.55C1731.79 12.0873 1732.38 12.8197 1732.63 13.747L1729.99 13.916C1729.79 13.6213 1729.46 13.3873 1728.98 13.214C1728.5 13.032 1727.95 12.941 1727.31 12.941C1726.33 12.941 1725.57 13.1707 1725.04 13.63C1724.51 14.0807 1724.25 14.6873 1724.25 15.45C1724.25 16.23 1724.55 16.8453 1725.14 17.296C1725.75 17.738 1726.66 17.959 1727.86 17.959C1728.72 17.959 1729.59 17.8723 1730.47 17.699V16.724H1727.39V14.943ZM1742.71 10.9H1745.42V16.113C1745.42 17.387 1744.96 18.3793 1744.05 19.09C1743.14 19.8007 1741.82 20.156 1740.08 20.156C1738.33 20.156 1736.99 19.8007 1736.08 19.09C1735.17 18.3793 1734.72 17.387 1734.72 16.113V10.9H1737.42V15.84C1737.42 16.4987 1737.64 17.0143 1738.06 17.387C1738.49 17.7597 1739.17 17.946 1740.08 17.946C1741.84 17.946 1742.71 17.244 1742.71 15.84V10.9ZM1755.47 20L1754.73 18.245H1749.48L1748.74 20H1746.07L1750.06 10.9H1754.22L1758.23 20H1755.47ZM1750.35 16.217H1753.87L1752.1 12.057L1750.35 16.217ZM1766.82 20L1763.84 16.776H1762.15V20H1759.45V10.9H1762.15H1765.92C1767.02 10.9 1767.92 11.1513 1768.63 11.654C1769.35 12.1567 1769.71 12.915 1769.71 13.929C1769.71 15.5497 1768.78 16.4813 1766.91 16.724L1770.24 20H1766.82ZM1762.15 13.058V14.748H1765.79C1766.17 14.748 1766.46 14.6787 1766.68 14.54C1766.9 14.4013 1767 14.1977 1767 13.929C1767 13.6603 1766.89 13.448 1766.67 13.292C1766.45 13.136 1766.16 13.058 1765.79 13.058H1762.15ZM1776.68 10.9C1778.47 10.9 1779.88 11.2943 1780.91 12.083C1781.94 12.8717 1782.46 13.994 1782.46 15.45C1782.46 16.906 1781.94 18.0283 1780.91 18.817C1779.88 19.6057 1778.47 20 1776.68 20H1771.54V10.9H1776.68ZM1776.4 17.79C1777.5 17.79 1778.33 17.5907 1778.89 17.192C1779.47 16.7847 1779.75 16.204 1779.75 15.45C1779.75 14.696 1779.47 14.1197 1778.89 13.721C1778.33 13.3137 1777.5 13.11 1776.4 13.11H1774.24V17.79H1776.4ZM1795.11 17.257C1794.76 17.6123 1794.3 17.79 1793.75 17.79C1793.19 17.79 1792.73 17.6123 1792.37 17.257C1792.02 16.9017 1791.84 16.451 1791.84 15.905C1791.84 15.3677 1792.02 14.9213 1792.37 14.566C1792.73 14.202 1793.19 14.02 1793.75 14.02C1794.3 14.02 1794.76 14.202 1795.11 14.566C1795.48 14.9213 1795.66 15.3677 1795.66 15.905C1795.66 16.451 1795.48 16.9017 1795.11 17.257ZM1813.5 10.9H1816.26L1812.45 20H1808.38L1804.62 10.9H1807.46L1810.45 18.687L1813.5 10.9ZM1824.28 20L1823.54 18.245H1818.29L1817.55 20H1814.88L1818.87 10.9H1823.03L1827.04 20H1824.28ZM1819.16 16.217H1822.68L1820.91 12.057L1819.16 16.217ZM1836.59 10.9H1839.18V20H1834.59L1830.85 12.434V20H1828.26V10.9H1832.85L1836.59 18.466V10.9ZM1846.69 14.943H1852.23V19.233C1850.55 19.8483 1848.84 20.156 1847.09 20.156C1845.12 20.156 1843.58 19.7443 1842.48 18.921C1841.39 18.089 1840.84 16.932 1840.84 15.45C1840.84 13.968 1841.35 12.8153 1842.36 11.992C1843.38 11.16 1844.79 10.744 1846.61 10.744C1848.05 10.744 1849.23 11.0127 1850.16 11.55C1851.09 12.0873 1851.68 12.8197 1851.93 13.747L1849.29 13.916C1849.09 13.6213 1848.75 13.3873 1848.28 13.214C1847.8 13.032 1847.25 12.941 1846.61 12.941C1845.62 12.941 1844.87 13.1707 1844.34 13.63C1843.81 14.0807 1843.54 14.6873 1843.54 15.45C1843.54 16.23 1843.84 16.8453 1844.44 17.296C1845.05 17.738 1845.95 17.959 1847.16 17.959C1848.02 17.959 1848.89 17.8723 1849.77 17.699V16.724H1846.69V14.943ZM1862.01 10.9H1864.72V16.113C1864.72 17.387 1864.26 18.3793 1863.35 19.09C1862.44 19.8007 1861.12 20.156 1859.37 20.156C1857.62 20.156 1856.29 19.8007 1855.38 19.09C1854.47 18.3793 1854.02 17.387 1854.02 16.113V10.9H1856.72V15.84C1856.72 16.4987 1856.93 17.0143 1857.36 17.387C1857.79 17.7597 1858.46 17.946 1859.37 17.946C1861.13 17.946 1862.01 17.244 1862.01 15.84V10.9ZM1874.77 20L1874.03 18.245H1868.78L1868.04 20H1865.37L1869.36 10.9H1873.52L1877.53 20H1874.77ZM1869.65 16.217H1873.17L1871.4 12.057L1869.65 16.217ZM1886.12 20L1883.14 16.776H1881.45V20H1878.75V10.9H1881.45H1885.22C1886.31 10.9 1887.22 11.1513 1887.93 11.654C1888.65 12.1567 1889.01 12.915 1889.01 13.929C1889.01 15.5497 1888.07 16.4813 1886.21 16.724L1889.54 20H1886.12ZM1881.45 13.058V14.748H1885.09C1885.46 14.748 1885.76 14.6787 1885.98 14.54C1886.19 14.4013 1886.3 14.1977 1886.3 13.929C1886.3 13.6603 1886.19 13.448 1885.96 13.292C1885.75 13.136 1885.46 13.058 1885.09 13.058H1881.45ZM1895.98 10.9C1897.77 10.9 1899.18 11.2943 1900.21 12.083C1901.24 12.8717 1901.75 13.994 1901.75 15.45C1901.75 16.906 1901.24 18.0283 1900.21 18.817C1899.18 19.6057 1897.77 20 1895.98 20H1890.83V10.9H1895.98ZM1895.7 17.79C1896.8 17.79 1897.63 17.5907 1898.19 17.192C1898.76 16.7847 1899.05 16.204 1899.05 15.45C1899.05 14.696 1898.76 14.1197 1898.19 13.721C1897.63 13.3137 1896.8 13.11 1895.7 13.11H1893.54V17.79H1895.7Z" fill="white"/>
</svg>
