<svg width="202" height="55" viewBox="0 0 202 55" fill="none" xmlns="http://www.w3.org/2000/svg">
<path opacity="0.99" d="M67.16 21H70.88L64.78 35H59.32L53.3 21H57.12L62.1 33.24L67.16 21ZM83.3692 35L82.0692 32.08H73.6092L72.3092 35H68.7092L75.1092 21H80.6892L87.0892 35H83.3692ZM74.8292 29.34H80.8692L77.8492 22.54L74.8292 29.34ZM102.035 21H105.515V35H99.3355L92.5955 22.98V35H89.0955V21H95.2955L102.035 33.02V21ZM117.117 27.36H125.377V33.84C122.871 34.7733 120.311 35.24 117.697 35.24C114.684 35.24 112.344 34.6 110.677 33.32C109.024 32.0267 108.197 30.2533 108.197 28C108.197 25.7467 108.964 23.98 110.497 22.7C112.031 21.4067 114.177 20.76 116.937 20.76C119.097 20.76 120.884 21.1667 122.297 21.98C123.711 22.7933 124.604 23.9 124.977 25.3L121.417 25.54C121.111 24.98 120.557 24.54 119.757 24.22C118.957 23.8867 118.017 23.72 116.937 23.72C115.311 23.72 114.051 24.1133 113.157 24.9C112.277 25.6733 111.837 26.7067 111.837 28C111.837 29.3067 112.337 30.3467 113.337 31.12C114.351 31.8933 115.831 32.28 117.777 32.28C119.151 32.28 120.584 32.12 122.077 31.8V29.78H117.117V27.36ZM140.697 21H144.337V29.1C144.337 31.0333 143.657 32.54 142.297 33.62C140.937 34.7 138.937 35.24 136.297 35.24C133.657 35.24 131.65 34.7 130.277 33.62C128.903 32.54 128.217 31.0333 128.217 29.1V21H131.857V28.74C131.857 29.86 132.217 30.7267 132.937 31.34C133.67 31.9533 134.79 32.26 136.297 32.26C139.23 32.26 140.697 31.0867 140.697 28.74V21ZM160.088 35L158.788 32.08H150.328L149.028 35H145.428L151.828 21H157.408L163.808 35H160.088ZM151.548 29.34H157.588L154.568 22.54L151.548 29.34ZM177.434 35L172.574 29.86H169.454V35H165.814V21H169.454H175.614C177.254 21 178.601 21.38 179.654 22.14C180.708 22.9 181.234 24.0333 181.234 25.54C181.234 26.8733 180.834 27.8867 180.034 28.58C179.234 29.26 178.134 29.6667 176.734 29.8L182.054 35H177.434ZM169.454 23.9V27.12H175.434C176.101 27.12 176.628 26.9867 177.014 26.72C177.401 26.44 177.594 26.0467 177.594 25.54C177.594 25.02 177.394 24.62 176.994 24.34C176.608 24.0467 176.088 23.9 175.434 23.9H169.454ZM191.795 21C194.528 21 196.675 21.6133 198.235 22.84C199.795 24.0667 200.575 25.7867 200.575 28C200.575 30.2133 199.795 31.9333 198.235 33.16C196.675 34.3867 194.528 35 191.795 35H184.115V21H191.795ZM191.415 32.02C193.215 32.02 194.582 31.6667 195.515 30.96C196.462 30.2533 196.935 29.2667 196.935 28C196.935 26.7333 196.462 25.7467 195.515 25.04C194.582 24.3333 193.215 23.98 191.415 23.98H187.755V32.02H191.415Z" fill="white"/>
<path d="M27 7L28.72 24.0209L44.3205 17L30.44 27L44.3205 37L28.72 29.9791L27 47L25.28 29.9791L9.67949 37L23.56 27L9.67949 17L25.28 24.0209L27 7Z" fill="#00B2FF"/>
<path d="M17.3205 10L27.3205 23.8805L37.3205 10L30.2996 25.6005L47.3205 27.3205L30.2996 29.0405L37.3205 44.641L27.3205 30.7605L17.3205 44.641L24.3414 29.0405L7.32051 27.3205L24.3414 25.6005L17.3205 10Z" fill="white"/>
</svg>
