<svg width="1448" height="778" viewBox="0 0 1448 778" fill="none" xmlns="http://www.w3.org/2000/svg">
<g clip-path="url(#clip0_1_137)">
<path d="M1448 758.722C1448 769.345 1123.77 778 724 778C324.226 778 0 769.345 0 758.722C0 748.1 324.226 739.444 724 739.444C1123.77 739.247 1448 747.903 1448 758.722Z" fill="url(#paint0_radial_1_137)"/>
<path d="M236.481 743.182C216.413 743.182 200.084 726.855 200.084 706.79V36.3919C200.084 16.3272 216.413 0 236.481 0H1238.08C1258.15 0 1274.48 16.3272 1274.48 36.3919V706.987C1274.48 727.051 1258.15 743.379 1238.08 743.379H236.481V743.182Z" fill="#E0E0E0"/>
<path d="M1270.93 706.79C1270.93 725.084 1256.18 739.838 1237.88 739.838H236.48C218.184 739.838 203.428 725.084 203.428 706.79V36.3919C203.428 18.0976 218.184 3.34412 236.48 3.34412H1238.08C1256.38 3.34412 1271.13 18.0976 1271.13 36.3919V706.79H1270.93Z" fill="#1C1F24"/>
<path d="M1154.27 704.626H306.913V729.609H1154.27V704.626Z" fill="url(#paint1_linear_1_137)"/>
<path d="M1270.93 673.545C1270.93 691.84 1256.18 706.593 1237.88 706.593H236.48C218.184 706.593 203.428 691.84 203.428 673.545V36.3919C203.428 18.0976 218.184 3.34412 236.48 3.34412H1238.08C1256.38 3.34412 1271.13 18.0976 1271.13 36.3919V673.545H1270.93Z" fill="#3B3B3B"/>
<path d="M236.48 703.052C220.151 703.052 206.773 689.676 206.773 673.349V36.3919C206.773 20.0647 220.151 6.68823 236.48 6.68823H1238.08C1254.41 6.68823 1267.79 20.0647 1267.79 36.3919V673.545C1267.79 689.873 1254.41 703.249 1238.08 703.249H236.48V703.052Z" fill="#000004"/>
<path d="M1400.19 745.739C1400.19 759.706 1364.78 760.886 1345.89 760.886H120.011C101.124 760.886 65.7109 759.706 65.7109 745.739H1400.19Z" fill="url(#paint2_linear_1_137)"/>
<path d="M730.492 720.953H65.9076V744.362H730.492V720.953Z" fill="url(#paint3_linear_1_137)"/>
<path d="M1400.19 720.953H730.492V744.362H1400.19V720.953Z" fill="url(#paint4_linear_1_137)"/>
<path d="M730.492 743.379H65.9076V745.739H730.492V743.379Z" fill="url(#paint5_linear_1_137)"/>
<path d="M1400.19 743.379H730.492V745.739H1400.19V743.379Z" fill="url(#paint6_linear_1_137)"/>
<path d="M730.492 720.953H647.469C651.403 727.838 658.879 732.559 667.339 732.559H802.696C811.155 732.559 818.632 727.838 822.566 720.953H730.492Z" fill="url(#paint7_linear_1_137)"/>
<path d="M1240.83 35.0149H231.759V673.939H1240.83V35.0149Z" fill="#EBEBEB"/>
</g>
<defs>
<radialGradient id="paint0_radial_1_137" cx="0" cy="0" r="1" gradientUnits="userSpaceOnUse" gradientTransform="translate(724 758.629) scale(724.107 19.2948)">
<stop/>
<stop offset="0.1683" stop-color="#434343"/>
<stop offset="0.3332" stop-color="#7C7C7C"/>
<stop offset="0.4909" stop-color="#ABABAB"/>
<stop offset="0.6401" stop-color="#CFCFCF"/>
<stop offset="0.7787" stop-color="#EAEAEA"/>
<stop offset="0.9027" stop-color="#F9F9F9"/>
<stop offset="1" stop-color="white"/>
</radialGradient>
<linearGradient id="paint1_linear_1_137" x1="730.538" y1="729.638" x2="730.538" y2="703.789" gradientUnits="userSpaceOnUse">
<stop stop-color="#282B32"/>
<stop offset="0.3841" stop-color="#26292F"/>
<stop offset="0.6136" stop-color="#1F2227"/>
<stop offset="0.8023" stop-color="#141519"/>
<stop offset="0.968" stop-color="#040405"/>
<stop offset="1"/>
</linearGradient>
<linearGradient id="paint2_linear_1_137" x1="733.037" y1="744.135" x2="733.037" y2="760.044" gradientUnits="userSpaceOnUse">
<stop stop-color="#525252"/>
<stop offset="0.2204" stop-color="#9FA0A4"/>
<stop offset="0.3398" stop-color="#96979B"/>
<stop offset="0.5337" stop-color="#7F8083"/>
<stop offset="0.7762" stop-color="#58595C"/>
<stop offset="1" stop-color="#2F3032"/>
</linearGradient>
<linearGradient id="paint3_linear_1_137" x1="65.8509" y1="732.694" x2="730.524" y2="732.694" gradientUnits="userSpaceOnUse">
<stop stop-color="#595959"/>
<stop offset="0.0107527" stop-color="#EEEEF0"/>
<stop offset="0.0430108" stop-color="#808080"/>
<stop offset="0.2903" stop-color="#E8E8E8"/>
<stop offset="0.2975" stop-color="#EAEAEA"/>
<stop offset="0.3539" stop-color="#F0F0F0"/>
<stop offset="0.5108" stop-color="#F2F2F2"/>
</linearGradient>
<linearGradient id="paint4_linear_1_137" x1="1400.22" y1="732.694" x2="730.523" y2="732.694" gradientUnits="userSpaceOnUse">
<stop stop-color="#121212"/>
<stop offset="0.0215054" stop-color="#EEEEF0"/>
<stop offset="0.0237306" stop-color="#D4D4D6"/>
<stop offset="0.0266545" stop-color="#BABABB"/>
<stop offset="0.030017" stop-color="#A5A5A5"/>
<stop offset="0.0339423" stop-color="#949494"/>
<stop offset="0.0387969" stop-color="#898989"/>
<stop offset="0.0456078" stop-color="#828282"/>
<stop offset="0.0645161" stop-color="#808080"/>
<stop offset="0.1188" stop-color="#9C9C9C"/>
<stop offset="0.1886" stop-color="#BABABA"/>
<stop offset="0.2483" stop-color="#CDCDCD"/>
<stop offset="0.2903" stop-color="#D4D4D4"/>
<stop offset="0.3075" stop-color="#DEDEDE"/>
<stop offset="0.3397" stop-color="#EAEAEA"/>
<stop offset="0.385" stop-color="#F0F0F0"/>
<stop offset="0.5108" stop-color="#F2F2F2"/>
</linearGradient>
<linearGradient id="paint5_linear_1_137" x1="65.8509" y1="744.647" x2="730.524" y2="744.647" gradientUnits="userSpaceOnUse">
<stop stop-color="#595959"/>
<stop offset="0.0107527" stop-color="#EEEEF0"/>
<stop offset="0.0430108" stop-color="#808080"/>
<stop offset="0.2903" stop-color="#E8E8E8"/>
<stop offset="0.2956" stop-color="#EBEBEB"/>
<stop offset="0.3305" stop-color="#F6F6F6"/>
<stop offset="0.3796" stop-color="#FDFDFD"/>
<stop offset="0.5161" stop-color="white"/>
</linearGradient>
<linearGradient id="paint6_linear_1_137" x1="1400.22" y1="744.647" x2="730.523" y2="744.647" gradientUnits="userSpaceOnUse">
<stop stop-color="#121212"/>
<stop offset="0.0215054" stop-color="#EEEEF0"/>
<stop offset="0.0237306" stop-color="#D4D4D6"/>
<stop offset="0.0266545" stop-color="#BABABB"/>
<stop offset="0.030017" stop-color="#A5A5A5"/>
<stop offset="0.0339423" stop-color="#949494"/>
<stop offset="0.0387969" stop-color="#898989"/>
<stop offset="0.0456078" stop-color="#828282"/>
<stop offset="0.0645161" stop-color="#808080"/>
<stop offset="0.1188" stop-color="#9C9C9C"/>
<stop offset="0.1886" stop-color="#BABABA"/>
<stop offset="0.2483" stop-color="#CDCDCD"/>
<stop offset="0.2903" stop-color="#D4D4D4"/>
<stop offset="0.297" stop-color="#DADADA"/>
<stop offset="0.3212" stop-color="#EBEBEB"/>
<stop offset="0.3513" stop-color="#F6F6F6"/>
<stop offset="0.3935" stop-color="#FDFDFD"/>
<stop offset="0.5108" stop-color="white"/>
</linearGradient>
<linearGradient id="paint7_linear_1_137" x1="648.809" y1="726.856" x2="823.158" y2="726.856" gradientUnits="userSpaceOnUse">
<stop stop-color="#4D4D4D"/>
<stop offset="0.0182471" stop-color="#646565"/>
<stop offset="0.0473468" stop-color="#838484"/>
<stop offset="0.0803314" stop-color="#9E9EA0"/>
<stop offset="0.1176" stop-color="#B3B4B6"/>
<stop offset="0.1611" stop-color="#C4C5C7"/>
<stop offset="0.2149" stop-color="#D0D0D2"/>
<stop offset="0.2904" stop-color="#D6D7D9"/>
<stop offset="0.5" stop-color="#D8D9DB"/>
<stop offset="0.7073" stop-color="#D6D7D9"/>
<stop offset="0.782" stop-color="#D0D0D2"/>
<stop offset="0.8352" stop-color="#C4C5C7"/>
<stop offset="0.8783" stop-color="#B3B4B6"/>
<stop offset="0.9152" stop-color="#9E9EA0"/>
<stop offset="0.9478" stop-color="#838484"/>
<stop offset="0.9766" stop-color="#646565"/>
<stop offset="0.9946" stop-color="#4D4D4D"/>
</linearGradient>
<clipPath id="clip0_1_137">
<rect width="1448" height="778" fill="white"/>
</clipPath>
</defs>
</svg>
