<svg width="1572" height="218" viewBox="0 0 1572 218" fill="none" xmlns="http://www.w3.org/2000/svg">
<g opacity="0.7">
<mask id="path-1-outside-1_1649_88" maskUnits="userSpaceOnUse" x="-3" y="-2" width="1577" height="222" fill="black">
<rect fill="white" x="-3" y="-2" width="1577" height="222"/>
<path d="M180.342 2.94141L111.348 213H69.3066L0.605469 2.94141H48.3594L90.2539 143.127L132.295 2.94141H180.342ZM319.502 129.064V87.0234C319.502 81.2617 318.379 75.8418 316.133 70.7637C313.984 65.5879 311.006 61.0957 307.197 57.2871C303.389 53.4785 298.896 50.5 293.721 48.3516C288.643 46.1055 283.223 44.9824 277.461 44.9824C271.699 44.9824 266.23 46.1055 261.055 48.3516C255.977 50.5 251.533 53.4785 247.725 57.2871C243.916 61.0957 240.889 65.5879 238.643 70.7637C236.494 75.8418 235.42 81.2617 235.42 87.0234V129.064H319.502ZM361.543 213H319.502V170.959H235.42V213H193.525V87.0234C193.525 75.4023 195.723 64.5137 200.117 54.3574C204.512 44.1035 210.469 35.168 217.988 27.5508C225.605 19.9336 234.492 13.9277 244.648 9.5332C254.902 5.13867 265.84 2.94141 277.461 2.94141C289.082 2.94141 299.971 5.13867 310.127 9.5332C320.381 13.9277 329.316 19.9336 336.934 27.5508C344.551 35.168 350.557 44.1035 354.951 54.3574C359.346 64.5137 361.543 75.4023 361.543 87.0234V213ZM566.035 213H521.064L440.059 74.7188V213H398.018V2.94141H442.988L523.994 141.369V2.94141H566.035V213ZM772.285 191.76C762.52 200.061 751.631 206.457 739.619 210.949C727.607 215.344 715.107 217.541 702.119 217.541C692.158 217.541 682.539 216.223 673.262 213.586C664.082 211.047 655.488 207.434 647.48 202.746C639.473 197.961 632.148 192.297 625.508 185.754C618.867 179.113 613.203 171.789 608.516 163.781C603.828 155.676 600.166 146.984 597.529 137.707C594.99 128.43 593.721 118.811 593.721 108.85C593.721 98.8887 594.99 89.3184 597.529 80.1387C600.166 70.959 603.828 62.3652 608.516 54.3574C613.203 46.252 618.867 38.9277 625.508 32.3848C632.148 25.7441 639.473 20.0801 647.48 15.3926C655.488 10.7051 664.082 7.0918 673.262 4.55273C682.539 1.91602 692.158 0.597656 702.119 0.597656C715.107 0.597656 727.607 2.84375 739.619 7.33594C751.631 11.7305 762.52 18.0781 772.285 26.3789L750.312 63C743.965 56.5547 736.641 51.5254 728.34 47.9121C720.039 44.2012 711.299 42.3457 702.119 42.3457C692.939 42.3457 684.297 44.1035 676.191 47.6191C668.184 51.1348 661.152 55.9199 655.098 61.9746C649.043 67.9316 644.258 74.9629 640.742 83.0684C637.227 91.0762 635.469 99.6699 635.469 108.85C635.469 118.127 637.227 126.818 640.742 134.924C644.258 143.029 649.043 150.109 655.098 156.164C661.152 162.219 668.184 167.004 676.191 170.52C684.297 174.035 692.939 175.793 702.119 175.793C707.393 175.793 712.52 175.158 717.5 173.889C722.48 172.619 727.217 170.861 731.709 168.615V108.85H772.285V191.76ZM970.332 129.064C970.332 140.686 968.135 151.623 963.74 161.877C959.346 172.033 953.34 180.92 945.723 188.537C938.105 196.057 929.17 202.014 918.916 206.408C908.76 210.803 897.871 213 886.25 213C874.629 213 863.691 210.803 853.438 206.408C843.281 202.014 834.395 196.057 826.777 188.537C819.258 180.92 813.301 172.033 808.906 161.877C804.512 151.623 802.314 140.686 802.314 129.064V2.94141H844.209V129.064C844.209 134.826 845.283 140.246 847.432 145.324C849.678 150.402 852.705 154.846 856.514 158.654C860.322 162.463 864.766 165.49 869.844 167.736C875.02 169.885 880.488 170.959 886.25 170.959C892.012 170.959 897.432 169.885 902.51 167.736C907.686 165.49 912.178 162.463 915.986 158.654C919.795 154.846 922.773 150.402 924.922 145.324C927.168 140.246 928.291 134.826 928.291 129.064V2.94141H970.332V129.064ZM1128.97 129.064V87.0234C1128.97 81.2617 1127.85 75.8418 1125.61 70.7637C1123.46 65.5879 1120.48 61.0957 1116.67 57.2871C1112.86 53.4785 1108.37 50.5 1103.19 48.3516C1098.12 46.1055 1092.7 44.9824 1086.93 44.9824C1081.17 44.9824 1075.7 46.1055 1070.53 48.3516C1065.45 50.5 1061.01 53.4785 1057.2 57.2871C1053.39 61.0957 1050.36 65.5879 1048.12 70.7637C1045.97 75.8418 1044.89 81.2617 1044.89 87.0234V129.064H1128.97ZM1171.02 213H1128.97V170.959H1044.89V213H1003V87.0234C1003 75.4023 1005.2 64.5137 1009.59 54.3574C1013.98 44.1035 1019.94 35.168 1027.46 27.5508C1035.08 19.9336 1043.96 13.9277 1054.12 9.5332C1064.38 5.13867 1075.31 2.94141 1086.93 2.94141C1098.55 2.94141 1109.44 5.13867 1119.6 9.5332C1129.85 13.9277 1138.79 19.9336 1146.41 27.5508C1154.02 35.168 1160.03 44.1035 1164.42 54.3574C1168.82 64.5137 1171.02 75.4023 1171.02 87.0234V213ZM1249.53 44.9824V129.064H1291.57C1297.33 129.064 1302.75 127.99 1307.83 125.842C1312.91 123.596 1317.35 120.568 1321.16 116.76C1324.97 112.951 1327.95 108.508 1330.1 103.43C1332.34 98.2539 1333.47 92.7852 1333.47 87.0234C1333.47 81.2617 1332.34 75.8418 1330.1 70.7637C1327.95 65.5879 1324.97 61.0957 1321.16 57.2871C1317.35 53.4785 1312.91 50.5 1307.83 48.3516C1302.75 46.1055 1297.33 44.9824 1291.57 44.9824H1249.53ZM1249.53 213H1207.49V2.94141H1291.57C1299.29 2.94141 1306.71 3.9668 1313.84 6.01758C1320.97 7.9707 1327.61 10.8027 1333.76 14.5137C1340.01 18.127 1345.67 22.5215 1350.75 27.6973C1355.93 32.7754 1360.32 38.4395 1363.94 44.6895C1367.65 50.9395 1370.48 57.6289 1372.43 64.7578C1374.48 71.8867 1375.51 79.3086 1375.51 87.0234C1375.51 94.25 1374.58 101.281 1372.72 108.117C1370.97 114.953 1368.38 121.447 1364.96 127.6C1361.64 133.752 1357.54 139.416 1352.66 144.592C1347.77 149.768 1342.3 154.26 1336.25 158.068L1359.54 213H1314.86L1296.55 170.666L1249.53 170.959V213ZM1571.5 107.971C1571.5 117.639 1570.23 126.965 1567.7 135.949C1565.25 144.836 1561.74 153.186 1557.15 160.998C1552.56 168.713 1547.09 175.793 1540.74 182.238C1534.39 188.586 1527.31 194.055 1519.5 198.645C1511.69 203.234 1503.29 206.799 1494.31 209.338C1485.42 211.779 1476.14 213 1466.47 213H1403.19V2.94141H1466.47C1476.14 2.94141 1485.42 4.21094 1494.31 6.75C1503.29 9.19141 1511.69 12.707 1519.5 17.2969C1527.31 21.8867 1534.39 27.4043 1540.74 33.8496C1547.09 40.1973 1552.56 47.2773 1557.15 55.0898C1561.74 62.8047 1565.25 71.1543 1567.7 80.1387C1570.23 89.0254 1571.5 98.3027 1571.5 107.971ZM1529.46 107.971C1529.46 99.2793 1527.8 91.125 1524.48 83.5078C1521.26 75.8906 1516.77 69.25 1511.01 63.5859C1505.34 57.8242 1498.65 53.2832 1490.94 49.9629C1483.32 46.6426 1475.17 44.9824 1466.47 44.9824H1445.53V170.959H1466.47C1475.17 170.959 1483.32 169.348 1490.94 166.125C1498.65 162.805 1505.34 158.312 1511.01 152.648C1516.77 146.887 1521.26 140.197 1524.48 132.58C1527.8 124.865 1529.46 116.662 1529.46 107.971Z"/>
</mask>
<path d="M180.342 2.94141L182.242 3.56551L183.104 0.941406H180.342V2.94141ZM111.348 213V215H112.796L113.248 213.624L111.348 213ZM69.3066 213L67.4057 213.622L67.8565 215H69.3066V213ZM0.605469 2.94141V0.941406H-2.15289L-1.29545 3.56311L0.605469 2.94141ZM48.3594 2.94141L50.2756 2.36873L49.8491 0.941406H48.3594V2.94141ZM90.2539 143.127L88.3376 143.7L90.2506 150.101L92.1696 143.701L90.2539 143.127ZM132.295 2.94141V0.941406H130.807L130.379 2.36689L132.295 2.94141ZM178.442 2.3173L109.448 212.376L113.248 213.624L182.242 3.56551L178.442 2.3173ZM111.348 211H69.3066V215H111.348V211ZM71.2076 212.378L2.50638 2.3197L-1.29545 3.56311L67.4057 213.622L71.2076 212.378ZM0.605469 4.94141H48.3594V0.941406H0.605469V4.94141ZM46.4431 3.51408L88.3376 143.7L92.1702 142.554L50.2756 2.36873L46.4431 3.51408ZM92.1696 143.701L134.211 3.51592L130.379 2.36689L88.3382 142.552L92.1696 143.701ZM132.295 4.94141H180.342V0.941406H132.295V4.94141ZM319.502 129.064V131.064H321.502V129.064H319.502ZM316.133 70.7637L314.286 71.5304L314.294 71.5517L314.304 71.5727L316.133 70.7637ZM293.721 48.3516L292.912 50.1806L292.933 50.1899L292.954 50.1987L293.721 48.3516ZM261.055 48.3516L261.834 50.1935L261.842 50.1899L261.851 50.1862L261.055 48.3516ZM238.643 70.7637L236.808 69.9675L236.804 69.9759L236.801 69.9844L238.643 70.7637ZM235.42 129.064H233.42V131.064H235.42V129.064ZM361.543 213V215H363.543V213H361.543ZM319.502 213H317.502V215H319.502V213ZM319.502 170.959H321.502V168.959H319.502V170.959ZM235.42 170.959V168.959H233.42V170.959H235.42ZM235.42 213V215H237.42V213H235.42ZM193.525 213H191.525V215H193.525V213ZM200.117 54.3574L201.953 55.1516L201.955 55.1453L200.117 54.3574ZM217.988 27.5508L216.574 26.1365L216.565 26.1457L217.988 27.5508ZM244.648 9.5332L243.861 7.6949L243.854 7.69766L244.648 9.5332ZM310.127 9.5332L309.333 11.3688L309.339 11.3715L310.127 9.5332ZM354.951 54.3574L353.113 55.1453L353.116 55.1516L354.951 54.3574ZM321.502 129.064V87.0234H317.502V129.064H321.502ZM321.502 87.0234C321.502 80.9938 320.325 75.2972 317.962 69.9547L314.304 71.5727C316.433 76.3864 317.502 81.5296 317.502 87.0234H321.502ZM317.98 69.9969C315.735 64.589 312.613 59.8743 308.611 55.8729L305.783 58.7013C309.399 62.3171 312.234 66.5868 314.286 71.5304L317.98 69.9969ZM308.611 55.8729C304.61 51.8715 299.895 48.7492 294.487 46.5044L292.954 50.1987C297.898 52.2508 302.167 55.0856 305.783 58.7013L308.611 55.8729ZM294.53 46.5225C289.187 44.1594 283.491 42.9824 277.461 42.9824V46.9824C282.955 46.9824 288.098 48.0515 292.912 50.1806L294.53 46.5225ZM277.461 42.9824C271.431 42.9824 265.691 44.1594 260.259 46.5169L261.851 50.1862C266.77 48.0516 271.967 46.9824 277.461 46.9824V42.9824ZM260.275 46.5096C254.966 48.756 250.305 51.8778 246.31 55.8729L249.139 58.7013C252.761 55.0792 256.987 52.244 261.834 50.1935L260.275 46.5096ZM246.31 55.8729C242.316 59.8676 239.149 64.5722 236.808 69.9675L240.477 71.5599C242.628 66.6036 245.516 62.3238 249.139 58.7013L246.31 55.8729ZM236.801 69.9844C234.543 75.3201 233.42 81.0063 233.42 87.0234H237.42C237.42 81.5172 238.445 76.3635 240.485 71.543L236.801 69.9844ZM233.42 87.0234V129.064H237.42V87.0234H233.42ZM235.42 131.064H319.502V127.064H235.42V131.064ZM361.543 211H319.502V215H361.543V211ZM321.502 213V170.959H317.502V213H321.502ZM319.502 168.959H235.42V172.959H319.502V168.959ZM233.42 170.959V213H237.42V170.959H233.42ZM235.42 211H193.525V215H235.42V211ZM195.525 213V87.0234H191.525V213H195.525ZM195.525 87.0234C195.525 75.6616 197.672 65.0447 201.953 55.1516L198.282 53.5632C193.773 63.9827 191.525 75.1431 191.525 87.0234H195.525ZM201.955 55.1453C206.256 45.1114 212.075 36.3876 219.412 28.9558L216.565 26.1457C208.862 33.9484 202.768 43.0957 198.279 53.5696L201.955 55.1453ZM219.402 28.965C226.837 21.531 235.511 15.6659 245.443 11.3687L243.854 7.69766C233.473 12.1895 224.374 18.3362 216.574 26.1366L219.402 28.965ZM245.436 11.3715C255.431 7.08811 266.099 4.94141 277.461 4.94141V0.941406C265.581 0.941406 254.374 3.18924 243.861 7.69491L245.436 11.3715ZM277.461 4.94141C288.823 4.94141 299.44 7.08811 309.333 11.3687L310.921 7.69766C300.502 3.18923 289.341 0.941406 277.461 0.941406V4.94141ZM309.339 11.3715C319.368 15.6694 328.089 21.5341 335.519 28.965L338.348 26.1366C330.544 18.3331 321.394 12.186 310.915 7.69491L309.339 11.3715ZM335.519 28.965C342.95 36.3959 348.815 45.1167 353.113 55.1453L356.789 53.5696C352.298 43.0903 346.151 33.9401 338.348 26.1366L335.519 28.965ZM353.116 55.1516C357.396 65.0447 359.543 75.6616 359.543 87.0234H363.543C363.543 75.1431 361.295 63.9827 356.787 53.5632L353.116 55.1516ZM359.543 87.0234V213H363.543V87.0234H359.543ZM566.035 213V215H568.035V213H566.035ZM521.064 213L519.339 214.011L519.918 215H521.064V213ZM440.059 74.7188L441.784 73.7078L438.059 67.3479V74.7188H440.059ZM440.059 213V215H442.059V213H440.059ZM398.018 213H396.018V215H398.018V213ZM398.018 2.94141V0.941406H396.018V2.94141H398.018ZM442.988 2.94141L444.714 1.93128L444.135 0.941406H442.988V2.94141ZM523.994 141.369L522.268 142.379L525.994 148.747V141.369H523.994ZM523.994 2.94141V0.941406H521.994V2.94141H523.994ZM566.035 2.94141H568.035V0.941406H566.035V2.94141ZM566.035 211H521.064V215H566.035V211ZM522.79 211.989L441.784 73.7078L438.333 75.7297L519.339 214.011L522.79 211.989ZM438.059 74.7188V213H442.059V74.7188H438.059ZM440.059 211H398.018V215H440.059V211ZM400.018 213V2.94141H396.018V213H400.018ZM398.018 4.94141H442.988V0.941406H398.018V4.94141ZM441.262 3.95153L522.268 142.379L525.72 140.359L444.714 1.93128L441.262 3.95153ZM525.994 141.369V2.94141H521.994V141.369H525.994ZM523.994 4.94141H566.035V0.941406H523.994V4.94141ZM564.035 2.94141V213H568.035V2.94141H564.035ZM772.285 191.76L773.58 193.284L774.285 192.685V191.76H772.285ZM739.619 210.949L740.306 212.827L740.313 212.825L740.32 212.823L739.619 210.949ZM673.262 213.586L673.808 211.662L673.795 211.658L673.262 213.586ZM647.48 202.746L646.455 204.463L646.462 204.468L646.47 204.472L647.48 202.746ZM625.508 185.754L624.094 187.168L624.099 187.173L624.104 187.179L625.508 185.754ZM608.516 163.781L606.784 164.783L606.79 164.792L608.516 163.781ZM597.529 137.707L595.6 138.235L595.603 138.244L595.605 138.254L597.529 137.707ZM597.529 80.1387L595.607 79.5865L595.604 79.596L595.602 79.6055L597.529 80.1387ZM608.516 54.3574L610.242 55.3678L610.247 55.3587L608.516 54.3574ZM625.508 32.3848L626.911 33.8094L626.917 33.8042L626.922 33.799L625.508 32.3848ZM673.262 4.55273L673.795 6.4804L673.808 6.47655L673.262 4.55273ZM739.619 7.33594L738.919 9.20922L738.925 9.21173L738.932 9.21418L739.619 7.33594ZM772.285 26.3789L774 27.4079L774.873 25.9535L773.58 24.855L772.285 26.3789ZM750.312 63L748.888 64.4034L750.699 66.2429L752.027 64.029L750.312 63ZM728.34 47.9121L727.524 49.738L727.533 49.742L727.542 49.7459L728.34 47.9121ZM676.191 47.6191L675.396 45.7843L675.387 45.7879L676.191 47.6191ZM655.098 61.9746L656.5 63.4003L656.506 63.3946L656.512 63.3888L655.098 61.9746ZM640.742 83.0684L642.573 83.8723L642.577 83.8642L640.742 83.0684ZM676.191 170.52L675.387 172.351L675.396 172.354L676.191 170.52ZM731.709 168.615L732.603 170.404L733.709 169.851V168.615H731.709ZM731.709 108.85V106.85H729.709V108.85H731.709ZM772.285 108.85H774.285V106.85H772.285V108.85ZM770.99 190.236C761.401 198.387 750.713 204.665 738.919 209.076L740.32 212.823C752.548 208.249 763.638 201.735 773.58 193.284L770.99 190.236ZM738.932 209.071C727.144 213.384 714.877 215.541 702.119 215.541V219.541C715.338 219.541 728.071 217.304 740.306 212.827L738.932 209.071ZM702.119 215.541C692.337 215.541 682.902 214.247 673.808 211.662L672.715 215.51C682.176 218.199 691.979 219.541 702.119 219.541V215.541ZM673.795 211.658C664.778 209.164 656.345 205.618 648.491 201.02L646.47 204.472C654.632 209.25 663.386 212.93 672.729 215.514L673.795 211.658ZM648.506 201.029C640.636 196.326 633.438 190.76 626.911 184.329L624.104 187.179C630.859 193.834 638.31 199.596 646.455 204.463L648.506 201.029ZM626.922 184.34C620.401 177.818 614.842 170.63 610.242 162.771L606.79 164.792C611.564 172.949 617.334 180.408 624.094 187.168L626.922 184.34ZM610.247 162.78C605.645 154.822 602.046 146.284 599.453 137.16L595.605 138.254C598.286 147.685 602.012 156.53 606.784 164.783L610.247 162.78ZM599.458 137.179C596.968 128.08 595.721 118.639 595.721 108.85H591.721C591.721 118.983 593.012 128.78 595.6 138.235L599.458 137.179ZM595.721 108.85C595.721 99.0606 596.968 89.6701 599.457 80.6718L595.602 79.6055C593.012 88.9666 591.721 98.7168 591.721 108.85H595.721ZM599.452 80.6908C602.044 71.6667 605.641 63.2275 610.242 55.3678L606.79 53.3471C602.015 61.503 598.288 70.2512 595.607 79.5865L599.452 80.6908ZM610.247 55.3587C614.845 47.4077 620.399 40.226 626.911 33.8094L624.104 30.9601C617.335 37.6295 611.561 45.0962 606.784 53.3562L610.247 55.3587ZM626.922 33.799C633.443 27.2776 640.632 21.7188 648.491 17.1186L646.47 13.6665C638.313 18.4414 630.854 24.2106 624.094 30.9706L626.922 33.799ZM648.491 17.1186C656.345 12.521 664.778 8.97442 673.795 6.48036L672.729 2.62511C663.386 5.20917 654.632 8.88915 646.47 13.6665L648.491 17.1186ZM673.808 6.47655C682.902 3.89202 692.337 2.59766 702.119 2.59766V-1.40234C691.979 -1.40234 682.176 -0.0599842 672.715 2.62892L673.808 6.47655ZM702.119 2.59766C714.871 2.59766 727.134 4.80192 738.919 9.20922L740.32 5.46265C728.081 0.88558 715.344 -1.40234 702.119 -1.40234V2.59766ZM738.932 9.21418C750.721 13.5273 761.404 19.7548 770.99 27.9028L773.58 24.855C763.635 16.4014 752.541 9.93364 740.306 5.45769L738.932 9.21418ZM770.57 25.3499L748.598 61.971L752.027 64.029L774 27.4079L770.57 25.3499ZM751.737 61.5966C745.21 54.9689 737.673 49.7936 729.138 46.0783L727.542 49.7459C735.608 53.2572 742.719 58.1404 748.888 64.4034L751.737 61.5966ZM729.156 46.0863C720.596 42.2594 711.577 40.3457 702.119 40.3457V44.3457C711.02 44.3457 719.482 46.143 727.524 49.738L729.156 46.0863ZM702.119 40.3457C692.677 40.3457 683.762 42.1555 675.396 45.7843L676.987 49.454C684.832 46.0516 693.202 44.3457 702.119 44.3457V40.3457ZM675.387 45.7879C667.157 49.4012 659.918 54.3262 653.683 60.5604L656.512 63.3888C662.387 57.5137 669.21 52.8683 676.995 49.4504L675.387 45.7879ZM653.695 60.5489C647.45 66.6934 642.521 73.9409 638.907 82.2725L642.577 83.8642C645.995 75.9848 650.636 69.1699 656.5 63.4003L653.695 60.5489ZM638.911 82.2644C635.279 90.5381 633.469 99.4072 633.469 108.85H637.469C637.469 99.9327 639.175 91.6142 642.573 83.8723L638.911 82.2644ZM633.469 108.85C633.469 118.387 635.277 127.351 638.907 135.72L642.577 134.128C639.176 126.286 637.469 117.867 637.469 108.85H633.469ZM638.907 135.72C642.52 144.048 647.445 151.34 653.683 157.578L656.512 154.75C650.641 148.879 645.996 142.01 642.577 134.128L638.907 135.72ZM653.683 157.578C659.918 163.812 667.157 168.737 675.387 172.351L676.995 168.688C669.21 165.27 662.387 160.625 656.512 154.75L653.683 157.578ZM675.396 172.354C683.762 175.983 692.677 177.793 702.119 177.793V173.793C693.202 173.793 684.832 172.087 676.987 168.685L675.396 172.354ZM702.119 177.793C707.555 177.793 712.848 177.138 717.994 175.827L717.006 171.951C712.191 173.178 707.23 173.793 702.119 173.793V177.793ZM717.994 175.827C723.11 174.523 727.981 172.716 732.603 170.404L730.815 166.826C726.453 169.007 721.851 170.716 717.006 171.951L717.994 175.827ZM733.709 168.615V108.85H729.709V168.615H733.709ZM731.709 110.85H772.285V106.85H731.709V110.85ZM770.285 108.85V191.76H774.285V108.85H770.285ZM963.74 161.877L965.576 162.671L965.579 162.665L963.74 161.877ZM945.723 188.537L947.128 189.96L947.137 189.951L945.723 188.537ZM918.916 206.408L918.128 204.57L918.122 204.573L918.916 206.408ZM853.438 206.408L852.643 208.244L852.65 208.246L853.438 206.408ZM826.777 188.537L825.354 189.942L825.363 189.951L825.372 189.96L826.777 188.537ZM808.906 161.877L807.068 162.665L807.071 162.671L808.906 161.877ZM802.314 2.94141V0.941406H800.314V2.94141H802.314ZM844.209 2.94141H846.209V0.941406H844.209V2.94141ZM847.432 145.324L845.59 146.104L845.596 146.118L845.603 146.133L847.432 145.324ZM869.844 167.736L869.035 169.565L869.056 169.575L869.077 169.584L869.844 167.736ZM902.51 167.736L903.289 169.578L903.297 169.575L903.306 169.571L902.51 167.736ZM924.922 145.324L923.093 144.515L923.086 144.53L923.08 144.545L924.922 145.324ZM928.291 2.94141V0.941406H926.291V2.94141H928.291ZM970.332 2.94141H972.332V0.941406H970.332V2.94141ZM968.332 129.064C968.332 140.426 966.185 151.095 961.902 161.089L965.579 162.665C970.084 152.152 972.332 140.945 972.332 129.064H968.332ZM961.905 161.083C957.607 171.014 951.742 179.689 944.308 187.123L947.137 189.951C954.937 182.151 961.084 173.052 965.576 162.671L961.905 161.083ZM944.318 187.114C936.886 194.45 928.162 200.27 918.128 204.57L919.704 208.246C930.178 203.758 939.325 197.663 947.128 189.96L944.318 187.114ZM918.122 204.573C908.229 208.853 897.612 211 886.25 211V215C898.13 215 909.291 212.752 919.71 208.244L918.122 204.573ZM886.25 211C874.888 211 864.22 208.853 854.225 204.57L852.65 208.246C863.163 212.752 874.37 215 886.25 215V211ZM854.232 204.573C844.295 200.273 835.617 194.453 828.182 187.114L825.372 189.96C833.172 197.66 842.267 203.754 852.643 208.244L854.232 204.573ZM828.201 187.132C820.861 179.697 815.041 171.019 810.742 161.083L807.071 162.671C811.56 173.047 817.655 182.143 825.354 189.942L828.201 187.132ZM810.745 161.089C806.461 151.095 804.314 140.426 804.314 129.064H800.314C800.314 140.945 802.562 152.152 807.068 162.665L810.745 161.089ZM804.314 129.064V2.94141H800.314V129.064H804.314ZM802.314 4.94141H844.209V0.941406H802.314V4.94141ZM842.209 2.94141V129.064H846.209V2.94141H842.209ZM842.209 129.064C842.209 135.082 843.332 140.768 845.59 146.104L849.274 144.545C847.234 139.724 846.209 134.571 846.209 129.064H842.209ZM845.603 146.133C847.945 151.43 851.111 156.08 855.099 160.069L857.928 157.24C854.299 153.611 851.41 149.375 849.261 144.515L845.603 146.133ZM855.099 160.069C859.088 164.057 863.738 167.223 869.035 169.565L870.653 165.907C865.793 163.758 861.557 160.869 857.928 157.24L855.099 160.069ZM869.077 169.584C874.503 171.836 880.233 172.959 886.25 172.959V168.959C880.744 168.959 875.536 167.934 870.611 165.889L869.077 169.584ZM886.25 172.959C892.267 172.959 897.953 171.836 903.289 169.578L901.73 165.894C896.91 167.934 891.756 168.959 886.25 168.959V172.959ZM903.306 169.571C908.701 167.23 913.406 164.063 917.401 160.069L914.572 157.24C910.95 160.863 906.67 163.751 901.714 165.902L903.306 169.571ZM917.401 160.069C921.396 156.073 924.517 151.413 926.764 146.104L923.08 144.545C921.029 149.392 918.194 153.618 914.572 157.24L917.401 160.069ZM926.751 146.133C929.114 140.791 930.291 135.094 930.291 129.064H926.291C926.291 134.558 925.222 139.702 923.093 144.515L926.751 146.133ZM930.291 129.064V2.94141H926.291V129.064H930.291ZM928.291 4.94141H970.332V0.941406H928.291V4.94141ZM968.332 2.94141V129.064H972.332V2.94141H968.332ZM1128.97 129.064V131.064H1130.97V129.064H1128.97ZM1125.61 70.7637L1123.76 71.5304L1123.77 71.5517L1123.78 71.5727L1125.61 70.7637ZM1103.19 48.3516L1102.38 50.1806L1102.41 50.1899L1102.43 50.1987L1103.19 48.3516ZM1070.53 48.3516L1071.31 50.1935L1071.32 50.1899L1071.32 50.1862L1070.53 48.3516ZM1048.12 70.7637L1046.28 69.9675L1046.28 69.9759L1046.27 69.9844L1048.12 70.7637ZM1044.89 129.064H1042.89V131.064H1044.89V129.064ZM1171.02 213V215H1173.02V213H1171.02ZM1128.97 213H1126.97V215H1128.97V213ZM1128.97 170.959H1130.97V168.959H1128.97V170.959ZM1044.89 170.959V168.959H1042.89V170.959H1044.89ZM1044.89 213V215H1046.89V213H1044.89ZM1003 213H1001V215H1003V213ZM1009.59 54.3574L1011.43 55.1516L1011.43 55.1453L1009.59 54.3574ZM1027.46 27.5508L1026.05 26.1365L1026.04 26.1457L1027.46 27.5508ZM1054.12 9.5332L1053.33 7.6949L1053.33 7.69766L1054.12 9.5332ZM1119.6 9.5332L1118.81 11.3688L1118.81 11.3715L1119.6 9.5332ZM1164.42 54.3574L1162.59 55.1453L1162.59 55.1516L1164.42 54.3574ZM1130.97 129.064V87.0234H1126.97V129.064H1130.97ZM1130.97 87.0234C1130.97 80.9938 1129.8 75.2972 1127.43 69.9547L1123.78 71.5727C1125.91 76.3864 1126.97 81.5296 1126.97 87.0234H1130.97ZM1127.45 69.9969C1125.21 64.589 1122.09 59.8743 1118.08 55.8729L1115.26 58.7013C1118.87 62.3171 1121.71 66.5868 1123.76 71.5304L1127.45 69.9969ZM1118.08 55.8729C1114.08 51.8715 1109.37 48.7492 1103.96 46.5044L1102.43 50.1987C1107.37 52.2508 1111.64 55.0856 1115.26 58.7013L1118.08 55.8729ZM1104 46.5225C1098.66 44.1594 1092.96 42.9824 1086.93 42.9824V46.9824C1092.43 46.9824 1097.57 48.0515 1102.38 50.1806L1104 46.5225ZM1086.93 42.9824C1080.9 42.9824 1075.16 44.1594 1069.73 46.5169L1071.32 50.1862C1076.24 48.0516 1081.44 46.9824 1086.93 46.9824V42.9824ZM1069.75 46.5096C1064.44 48.756 1059.78 51.8778 1055.78 55.8729L1058.61 58.7013C1062.23 55.0792 1066.46 52.244 1071.31 50.1935L1069.75 46.5096ZM1055.78 55.8729C1051.79 59.8676 1048.62 64.5722 1046.28 69.9675L1049.95 71.5599C1052.1 66.6036 1054.99 62.3238 1058.61 58.7013L1055.78 55.8729ZM1046.27 69.9844C1044.02 75.3201 1042.89 81.0063 1042.89 87.0234H1046.89C1046.89 81.5172 1047.92 76.3635 1049.96 71.543L1046.27 69.9844ZM1042.89 87.0234V129.064H1046.89V87.0234H1042.89ZM1044.89 131.064H1128.97V127.064H1044.89V131.064ZM1171.02 211H1128.97V215H1171.02V211ZM1130.97 213V170.959H1126.97V213H1130.97ZM1128.97 168.959H1044.89V172.959H1128.97V168.959ZM1042.89 170.959V213H1046.89V170.959H1042.89ZM1044.89 211H1003V215H1044.89V211ZM1005 213V87.0234H1001V213H1005ZM1005 87.0234C1005 75.6616 1007.14 65.0447 1011.43 55.1516L1007.75 53.5632C1003.25 63.9827 1001 75.1431 1001 87.0234H1005ZM1011.43 55.1453C1015.73 45.1114 1021.55 36.3876 1028.88 28.9558L1026.04 26.1457C1018.34 33.9484 1012.24 43.0957 1007.75 53.5696L1011.43 55.1453ZM1028.88 28.965C1036.31 21.531 1044.98 15.6659 1054.92 11.3687L1053.33 7.69766C1042.95 12.1895 1033.85 18.3362 1026.05 26.1366L1028.88 28.965ZM1054.91 11.3715C1064.9 7.08811 1075.57 4.94141 1086.93 4.94141V0.941406C1075.05 0.941406 1063.85 3.18924 1053.33 7.69491L1054.91 11.3715ZM1086.93 4.94141C1098.3 4.94141 1108.91 7.08811 1118.81 11.3687L1120.39 7.69766C1109.97 3.18923 1098.81 0.941406 1086.93 0.941406V4.94141ZM1118.81 11.3715C1128.84 15.6694 1137.56 21.5341 1144.99 28.965L1147.82 26.1366C1140.02 18.3331 1130.87 12.186 1120.39 7.69491L1118.81 11.3715ZM1144.99 28.965C1152.42 36.3959 1158.29 45.1167 1162.59 55.1453L1166.26 53.5696C1161.77 43.0903 1155.62 33.9401 1147.82 26.1366L1144.99 28.965ZM1162.59 55.1516C1166.87 65.0447 1169.02 75.6616 1169.02 87.0234H1173.02C1173.02 75.1431 1170.77 63.9827 1166.26 53.5632L1162.59 55.1516ZM1169.02 87.0234V213H1173.02V87.0234H1169.02ZM1249.53 44.9824V42.9824H1247.53V44.9824H1249.53ZM1249.53 129.064H1247.53V131.064H1249.53V129.064ZM1307.83 125.842L1308.61 127.684L1308.63 127.677L1308.64 127.671L1307.83 125.842ZM1330.1 103.43L1328.26 102.633L1328.26 102.642L1328.26 102.65L1330.1 103.43ZM1330.1 70.7637L1328.25 71.5304L1328.26 71.5517L1328.27 71.5727L1330.1 70.7637ZM1307.83 48.3516L1307.02 50.1806L1307.04 50.1872L1307.05 50.1935L1307.83 48.3516ZM1249.53 213V215H1251.53V213H1249.53ZM1207.49 213H1205.49V215H1207.49V213ZM1207.49 2.94141V0.941406H1205.49V2.94141H1207.49ZM1313.84 6.01758L1313.28 7.93963L1313.3 7.94314L1313.31 7.9465L1313.84 6.01758ZM1333.76 14.5137L1332.73 16.2263L1332.74 16.2358L1332.76 16.2451L1333.76 14.5137ZM1350.75 27.6973L1349.32 29.0979L1349.34 29.1115L1349.35 29.1249L1350.75 27.6973ZM1363.94 44.6895L1362.2 45.6905L1362.21 45.7005L1362.22 45.7105L1363.94 44.6895ZM1372.43 64.7578L1370.5 65.2863L1370.51 65.2985L1370.51 65.3107L1372.43 64.7578ZM1372.72 108.117L1370.79 107.593L1370.79 107.606L1370.79 107.619L1372.72 108.117ZM1364.96 127.6L1363.21 126.628L1363.21 126.639L1363.2 126.65L1364.96 127.6ZM1336.25 158.068L1335.19 156.375L1333.74 157.282L1334.41 158.849L1336.25 158.068ZM1359.54 213V215H1362.56L1361.38 212.219L1359.54 213ZM1314.86 213L1313.03 213.794L1313.55 215H1314.86V213ZM1296.55 170.666L1298.39 169.872L1297.86 168.658L1296.54 168.666L1296.55 170.666ZM1249.53 170.959L1249.52 168.959L1247.53 168.971V170.959H1249.53ZM1247.53 44.9824V129.064H1251.53V44.9824H1247.53ZM1249.53 131.064H1291.57V127.064H1249.53V131.064ZM1291.57 131.064C1297.59 131.064 1303.28 129.941 1308.61 127.684L1307.05 124C1302.23 126.039 1297.08 127.064 1291.57 127.064V131.064ZM1308.64 127.671C1313.94 125.328 1318.59 122.162 1322.58 118.174L1319.75 115.346C1316.12 118.974 1311.88 121.863 1307.02 124.013L1308.64 127.671ZM1322.58 118.174C1326.57 114.179 1329.69 109.519 1331.94 104.209L1328.26 102.65C1326.21 107.497 1323.37 111.723 1319.75 115.346L1322.58 118.174ZM1331.93 104.226C1334.29 98.7934 1335.47 93.0531 1335.47 87.0234H1331.47C1331.47 92.5172 1330.4 97.7144 1328.26 102.633L1331.93 104.226ZM1335.47 87.0234C1335.47 80.9938 1334.29 75.2972 1331.93 69.9547L1328.27 71.5727C1330.4 76.3864 1331.47 81.5296 1331.47 87.0234H1335.47ZM1331.94 69.9969C1329.7 64.589 1326.58 59.8743 1322.58 55.8729L1319.75 58.7013C1323.36 62.3171 1326.2 66.5868 1328.25 71.5304L1331.94 69.9969ZM1322.58 55.8729C1318.58 51.8778 1313.92 48.756 1308.61 46.5096L1307.05 50.1935C1311.9 52.244 1316.13 55.0792 1319.75 58.7013L1322.58 55.8729ZM1308.64 46.5225C1303.3 44.1594 1297.6 42.9824 1291.57 42.9824V46.9824C1297.07 46.9824 1302.21 48.0515 1307.02 50.1806L1308.64 46.5225ZM1291.57 42.9824H1249.53V46.9824H1291.57V42.9824ZM1249.53 211H1207.49V215H1249.53V211ZM1209.49 213V2.94141H1205.49V213H1209.49ZM1207.49 4.94141H1291.57V0.941406H1207.49V4.94141ZM1291.57 4.94141C1299.11 4.94141 1306.34 5.9426 1313.28 7.93963L1314.39 4.09553C1307.08 1.991 1299.47 0.941406 1291.57 0.941406V4.94141ZM1313.31 7.9465C1320.27 9.85245 1326.74 12.613 1332.73 16.2263L1334.79 12.8011C1328.48 8.99248 1321.67 6.08896 1314.37 4.08866L1313.31 7.9465ZM1332.76 16.2451C1338.85 19.7675 1344.37 24.0506 1349.32 29.0979L1352.18 26.2966C1346.98 20.9923 1341.17 16.4864 1334.76 12.7822L1332.76 16.2451ZM1349.35 29.1249C1354.4 34.077 1358.68 39.5977 1362.2 45.6905L1365.67 43.6884C1361.96 37.2813 1357.46 31.4738 1352.15 26.2696L1349.35 29.1249ZM1362.22 45.7105C1365.83 51.8038 1368.6 58.3273 1370.5 65.2863L1374.36 64.2293C1372.36 56.9305 1369.46 50.0751 1365.66 43.6684L1362.22 45.7105ZM1370.51 65.3107C1372.51 72.2528 1373.51 79.4881 1373.51 87.0234H1377.51C1377.51 79.1291 1376.46 71.5206 1374.35 64.2049L1370.51 65.3107ZM1373.51 87.0234C1373.51 94.0767 1372.6 100.932 1370.79 107.593L1374.65 108.641C1376.56 101.631 1377.51 94.4233 1377.51 87.0234H1373.51ZM1370.79 107.619C1369.07 114.29 1366.55 120.625 1363.21 126.628L1366.71 128.571C1370.21 122.269 1372.86 115.616 1374.66 108.615L1370.79 107.619ZM1363.2 126.65C1359.96 132.646 1355.97 138.168 1351.2 143.219L1354.11 145.964C1359.11 140.664 1363.32 134.858 1366.72 128.549L1363.2 126.65ZM1351.2 143.219C1346.44 148.272 1341.1 152.656 1335.19 156.375L1337.31 159.761C1343.51 155.863 1349.11 151.264 1354.11 145.964L1351.2 143.219ZM1334.41 158.849L1357.7 213.781L1361.38 212.219L1338.09 157.288L1334.41 158.849ZM1359.54 211H1314.86V215H1359.54V211ZM1316.7 212.206L1298.39 169.872L1294.72 171.46L1313.03 213.794L1316.7 212.206ZM1296.54 168.666L1249.52 168.959L1249.54 172.959L1296.57 172.666L1296.54 168.666ZM1247.53 170.959V213H1251.53V170.959H1247.53ZM1567.7 135.949L1565.77 135.405L1565.77 135.412L1565.77 135.419L1567.7 135.949ZM1557.15 160.998L1558.87 162.021L1558.87 162.011L1557.15 160.998ZM1540.74 182.238L1542.16 183.652L1542.16 183.647L1542.17 183.642L1540.74 182.238ZM1494.31 209.338L1494.84 211.266L1494.84 211.264L1494.85 211.263L1494.31 209.338ZM1403.19 213H1401.19V215H1403.19V213ZM1403.19 2.94141V0.941406H1401.19V2.94141H1403.19ZM1494.31 6.75L1493.76 8.67305L1493.77 8.67661L1493.78 8.68001L1494.31 6.75ZM1540.74 33.8496L1539.32 35.253L1539.32 35.2584L1539.33 35.2638L1540.74 33.8496ZM1557.15 55.0898L1555.42 56.103L1555.43 56.1124L1557.15 55.0898ZM1567.7 80.1387L1565.77 80.6631L1565.77 80.6756L1565.77 80.6881L1567.7 80.1387ZM1524.48 83.5078L1522.64 84.2871L1522.64 84.2971L1522.65 84.307L1524.48 83.5078ZM1511.01 63.5859L1509.58 64.988L1509.59 65.0002L1509.6 65.0122L1511.01 63.5859ZM1490.94 49.9629L1490.14 51.7963L1490.15 51.8L1490.94 49.9629ZM1445.53 44.9824V42.9824H1443.53V44.9824H1445.53ZM1445.53 170.959H1443.53V172.959H1445.53V170.959ZM1490.94 166.125L1491.72 167.967L1491.73 167.962L1490.94 166.125ZM1524.48 132.58L1522.65 131.789L1522.64 131.801L1524.48 132.58ZM1569.5 107.971C1569.5 117.461 1568.26 126.604 1565.77 135.405L1569.62 136.493C1572.21 127.326 1573.5 117.816 1573.5 107.971H1569.5ZM1565.77 135.419C1563.37 144.14 1559.92 152.326 1555.42 159.985L1558.87 162.011C1563.55 154.045 1567.14 145.532 1569.62 136.479L1565.77 135.419ZM1555.43 159.975C1550.92 167.551 1545.55 174.503 1539.32 180.835L1542.17 183.642C1548.63 177.083 1554.19 169.875 1558.87 162.021L1555.43 159.975ZM1539.33 180.824C1533.1 187.051 1526.16 192.415 1518.49 196.92L1520.52 200.369C1528.47 195.694 1535.69 190.121 1542.16 183.652L1539.33 180.824ZM1518.49 196.92C1510.83 201.421 1502.59 204.919 1493.76 207.413L1494.85 211.263C1503.99 208.678 1512.55 205.048 1520.52 200.369L1518.49 196.92ZM1493.78 207.409C1485.07 209.801 1475.97 211 1466.47 211V215C1476.31 215 1485.77 213.758 1494.84 211.266L1493.78 207.409ZM1466.47 211H1403.19V215H1466.47V211ZM1405.19 213V2.94141H1401.19V213H1405.19ZM1403.19 4.94141H1466.47V0.941406H1403.19V4.94141ZM1466.47 4.94141C1475.97 4.94141 1485.06 6.18734 1493.76 8.67305L1494.86 4.82695C1485.78 2.23453 1476.32 0.941406 1466.47 0.941406V4.94141ZM1493.78 8.68001C1502.6 11.0762 1510.83 14.5238 1518.49 19.0213L1520.52 15.5725C1512.55 10.8902 1503.98 7.30665 1494.83 4.81999L1493.78 8.68001ZM1518.49 19.0213C1526.15 23.5227 1533.09 28.9324 1539.32 35.253L1542.17 32.4462C1535.7 25.8762 1528.48 20.2507 1520.52 15.5725L1518.49 19.0213ZM1539.33 35.2638C1545.55 41.4903 1550.92 48.4354 1555.42 56.1029L1558.87 54.0767C1554.2 46.1193 1548.63 38.9042 1542.16 32.4354L1539.33 35.2638ZM1555.43 56.1124C1559.92 63.6659 1563.37 71.8471 1565.77 80.6631L1569.63 79.6142C1567.14 70.4615 1563.55 61.9435 1558.87 54.0673L1555.43 56.1124ZM1565.77 80.6881C1568.26 89.3881 1569.5 98.48 1569.5 107.971H1573.5C1573.5 98.1255 1572.21 88.6627 1569.62 79.5892L1565.77 80.6881ZM1531.46 107.971C1531.46 99.0172 1529.75 90.5895 1526.32 82.7086L1522.65 84.307C1525.85 91.6605 1527.46 99.5414 1527.46 107.971H1531.46ZM1526.32 82.7285C1523 74.8747 1518.36 68.0128 1512.41 62.1597L1509.6 65.0122C1515.17 70.4872 1519.52 76.9065 1522.64 84.2871L1526.32 82.7285ZM1512.43 62.1839C1506.58 56.23 1499.67 51.5444 1491.73 48.1258L1490.15 51.8C1497.63 55.022 1504.1 59.4184 1509.58 64.988L1512.43 62.1839ZM1491.74 48.1295C1483.86 44.6943 1475.43 42.9824 1466.47 42.9824V46.9824C1474.9 46.9824 1482.78 48.5909 1490.14 51.7963L1491.74 48.1295ZM1466.47 42.9824H1445.53V46.9824H1466.47V42.9824ZM1443.53 44.9824V170.959H1447.53V44.9824H1443.53ZM1445.53 172.959H1466.47V168.959H1445.53V172.959ZM1466.47 172.959C1475.42 172.959 1483.84 171.299 1491.72 167.967L1490.16 164.283C1482.8 167.396 1474.91 168.959 1466.47 168.959V172.959ZM1491.73 167.962C1499.66 164.547 1506.57 159.915 1512.42 154.063L1509.59 151.234C1504.12 156.71 1497.64 161.063 1490.15 164.288L1491.73 167.962ZM1512.42 154.063C1518.37 148.116 1523 141.21 1526.32 133.359L1522.64 131.801C1519.52 139.184 1515.17 145.657 1509.59 151.234L1512.42 154.063ZM1526.32 133.371C1529.75 125.397 1531.46 116.924 1531.46 107.971H1527.46C1527.46 116.4 1525.85 124.333 1522.65 131.789L1526.32 133.371Z" fill="#EBF1FF" mask="url(#path-1-outside-1_1649_88)"/>
</g>
</svg>
